<svg width="96" height="96" viewBox="0 0 96 96" fill="none" xmlns="http://www.w3.org/2000/svg">
<path d="M30.3477 5.21875C23.8342 5.05294 17.8975 9.46716 16.375 16.0664L14.1562 25.6758C20.3442 15.5878 30.9954 8.93297 42.7734 7.79297L33.1641 5.57422C32.2213 5.35647 31.2781 5.24244 30.3477 5.21875ZM47.2305 14C32.7394 14.3224 19.5219 23.9617 15.3164 38.6289C10.1404 56.6809 20.5789 75.5076 38.6289 80.6836C56.6789 85.8596 75.5076 75.4231 80.6836 57.3711C85.8596 39.3191 75.4231 20.4924 57.3711 15.3164C53.9863 14.3459 50.5746 13.9256 47.2305 14ZM70.3242 14.1562C80.4122 20.3443 87.067 30.9954 88.207 42.7734L90.4258 33.1641C92.1678 25.6221 87.4756 18.115 79.9336 16.375L70.3242 14.1562ZM40.3828 25.1797C40.9125 25.2207 41.4461 25.3168 41.9766 25.4688C46.2226 26.6847 48.6769 31.1134 47.4609 35.3594C46.2449 39.6054 41.8124 42.0597 37.5664 40.8438C33.3204 39.6278 30.8679 35.1991 32.0859 30.9531C33.1517 27.2379 36.6751 24.8928 40.3828 25.1797ZM63.4531 31.7969C63.983 31.838 64.5161 31.9337 65.0469 32.0859C69.2929 33.3019 71.7492 37.7306 70.5312 41.9766C69.3152 46.2206 64.8827 48.6769 60.6367 47.4609C56.3907 46.2449 53.9363 41.8163 55.1523 37.5703C56.2163 33.8551 59.7441 31.5091 63.4531 31.7969ZM48.0703 44.0039C50.2783 44.0419 52.0341 45.8603 51.9961 48.0703C51.9581 50.2783 50.1397 52.0341 47.9297 51.9961C45.7217 51.9581 43.9659 50.1397 44.0039 47.9297C44.0419 45.7217 45.8603 43.9659 48.0703 44.0039ZM33.7695 48.2539C34.2994 48.2949 34.8325 48.3871 35.3633 48.5391C39.6093 49.7551 42.0657 54.1876 40.8477 58.4336C39.6297 62.6796 35.1971 65.1321 30.9531 63.9141C26.7071 62.6981 24.2507 58.2694 25.4687 54.0234C26.5327 50.3082 30.0605 47.967 33.7695 48.2539ZM7.79297 53.2305L5.57422 62.8398C3.83422 70.3818 8.5244 77.8869 16.0664 79.6289L25.6758 81.8477C15.5898 75.6597 8.93297 65.0085 7.79297 53.2305ZM56.8359 54.8672C57.3658 54.9082 57.9028 55.0043 58.4336 55.1562C62.6796 56.3722 65.1321 60.8009 63.9141 65.0469C62.6961 69.2929 58.2694 71.7472 54.0234 70.5312C49.7774 69.3153 47.3231 64.8866 48.5391 60.6406C49.6031 56.9254 53.1269 54.5803 56.8359 54.8672ZM81.8477 70.3242C75.6597 80.4102 65.0085 87.067 53.2305 88.207L62.8398 90.4258C70.3818 92.1658 77.8869 87.4756 79.6289 79.9336L81.8477 70.3242Z" fill="#FDB714"/>
</svg>
