<svg width="1219" height="192" viewBox="0 0 1219 192" fill="none" xmlns="http://www.w3.org/2000/svg">
<path d="M73.3001 0H135.5L67.8001 95.9L135.5 191.8H73.3001C69.9001 191.8 66.6001 190.1 64.6001 187.3L0.100098 95.9L64.6001 4.5C66.6001 1.7 69.9001 0 73.3001 0Z" fill="#FCB614"/>
<path d="M615 0H677.2L609.5 95.9L677.2 191.8H615C611.6 191.8 608.3 190.1 606.3 187.3L541.8 95.9L606.3 4.5C608.3 1.7 611.5 0 615 0Z" fill="#FCB614"/>
<path d="M468.6 191.9H406.4L474.1 95.9996L406.4 0.0996094H468.6C472 0.0996094 475.3 1.79961 477.3 4.59961L541.8 95.9996L477.3 187.4C475.2 190.2 472 191.9 468.6 191.9Z" fill="#FCB614"/>
<path d="M333.1 191.9H270.9L338.6 95.9996L270.9 0.0996094H333.1C336.5 0.0996094 339.8 1.79961 341.8 4.59961L406.3 95.9996L341.8 187.4C339.8 190.2 336.6 191.9 333.1 191.9Z" fill="#FCB614"/>
<path d="M1021.2 0H1083.4L1015.7 95.9L1083.4 191.8H1021.2C1017.8 191.8 1014.5 190.1 1012.5 187.3L948 95.9L1012.5 4.5C1014.5 1.7 1017.8 0 1021.2 0Z" fill="#FCB614"/>
<path d="M885.8 0H948L880.3 95.9L948 191.8H885.8C882.4 191.8 879.1 190.1 877.1 187.3L812.6 95.9L877.1 4.5C879.1 1.7 882.4 0 885.8 0Z" fill="#FCB614"/>
<path d="M1145.6 191.9H1083.4L1151.1 95.9996L1083.4 0.0996094H1145.6C1149 0.0996094 1152.3 1.79961 1154.3 4.59961L1218.8 95.9996L1154.3 187.4C1152.3 190.2 1149.1 191.9 1145.6 191.9Z" fill="#FCB614"/>
</svg>
