<svg width="24" height="24" viewBox="0 0 24 24" fill="none" xmlns="http://www.w3.org/2000/svg">
<path d="M8 15.1739C3.66137 15.1739 0 15.8789 0 18.599C0 21.32 3.68538 22 8 22C12.3376 22 16 21.295 16 18.575C16 15.8539 12.3146 15.1739 8 15.1739ZM8 2C5.0609 2 2.70601 4.35402 2.70601 7.29105C2.70601 10.2281 5.0609 12.5831 8 12.5831C10.9381 12.5831 13.294 10.2281 13.294 7.29105C13.294 4.35402 10.9381 2 8 2Z" fill="white"/>
<path d="M17.8 11.5631C14.9799 11.5631 12.6 12.0213 12.6 13.7893C12.6 15.558 14.9955 16 17.8 16C20.6195 16 23 15.5417 23 13.7737C23 12.0051 20.6045 11.5631 17.8 11.5631ZM17.8 3C15.8896 3 14.3589 4.53012 14.3589 6.43918C14.3589 8.34825 15.8896 9.87902 17.8 9.87902C19.7098 9.87902 21.2411 8.34825 21.2411 6.43918C21.2411 4.53012 19.7098 3 17.8 3Z" fill="white"/>
</svg>
