<svg width="46" height="46" viewBox="0 0 46 46" fill="none" xmlns="http://www.w3.org/2000/svg">
<path d="M39.14 0H7.38998C3.62998 0 0.589966 3.05 0.589966 6.8V38.55C0.589966 42.31 3.63998 45.35 7.38998 45.35H39.14C42.9 45.35 45.94 42.3 45.94 38.55V6.8C45.94 3.04 42.89 0 39.14 0Z" fill="black"/>
<path d="M7.58997 11.99H22.14L22.17 16.19L12.15 16.16V20.75H21.03V24.62H12.15V29.18H22.14V33.35H7.58997V11.99Z" fill="white"/>
<path d="M35.77 18.47C36.76 19.11 37.53 19.97 38.1 21.05C38.66 22.13 38.94 23.31 38.94 24.59V33.35H34.38V24.71C34.38 23.97 34.12 23.33 33.59 22.79C33.06 22.25 32.41 21.98 31.63 21.98C30.91 21.98 30.28 22.25 29.74 22.79C29.2 23.33 28.93 23.97 28.93 24.71V33.35H24.37V17.87H28.15V19.73C28.67 19.03 29.29 18.48 30.03 18.1C30.76 17.71 31.57 17.52 32.47 17.52C33.68 17.51 34.78 17.84 35.77 18.47Z" fill="white"/>
</svg>
