<svg width="47" height="46" viewBox="0 0 47 46" fill="none" xmlns="http://www.w3.org/2000/svg">
<path d="M39.22 0H7.47003C3.71003 0 0.670044 3.05 0.670044 6.8V38.55C0.670044 42.31 3.72003 45.35 7.47003 45.35H39.22C42.98 45.35 46.02 42.3 46.02 38.55V6.8C46.03 3.04 42.98 0 39.22 0Z" fill="#FDB714"/>
<path d="M7.26001 11.8101H21.12V16.0101L11.82 15.9801V20.5701H20.1V24.4401H11.82V33.1701H7.26001V11.8101Z" fill="black"/>
<path d="M39.45 17.6901V33.1701H35.7V31.1001C34.54 32.7201 32.91 33.5301 30.81 33.5301C29.33 33.5301 27.97 33.1601 26.73 32.4201C25.49 31.6801 24.5 30.6901 23.77 29.4501C23.04 28.2101 22.67 26.8601 22.67 25.4001C22.67 23.9601 23.04 22.6201 23.77 21.3801C24.5 20.1401 25.48 19.1601 26.73 18.4201C27.97 17.6901 29.33 17.3301 30.81 17.3301C32.91 17.3301 34.54 18.1401 35.7 19.7601V17.6901H39.45ZM33.79 28.1601C34.54 27.4201 34.91 26.5101 34.91 25.4301C34.91 24.3501 34.53 23.4301 33.79 22.6801C33.05 21.9301 32.13 21.5601 31.08 21.5601C30 21.5601 29.09 21.9401 28.35 22.6801C27.61 23.4301 27.24 24.3501 27.24 25.4301C27.24 26.5101 27.61 27.4201 28.35 28.1601C29.09 28.9001 30 29.2701 31.08 29.2701C32.14 29.2701 33.04 28.9001 33.79 28.1601Z" fill="black"/>
</svg>
