<svg width="143" height="83" viewBox="0 0 143 83" fill="none" xmlns="http://www.w3.org/2000/svg">
<path d="M27.16 23.62C26.83 23.54 26.5 23.47 26.17 23.4C24.04 22.94 22.65 22.57 22.65 21.6C22.65 20.41 24.5 20.28 25.29 20.28C26.32 20.28 28.07 20.54 28.23 22.25L28.24 22.33C28.26 22.58 28.47 22.77 28.72 22.77H31.42C31.7 22.77 31.92 22.54 31.9 22.26L31.89 22.16C31.69 18.72 29.4 16.97 25.08 16.97C22.07 16.97 18.83 18.47 18.83 21.76C18.83 25.31 22.36 26.09 24.25 26.51C24.49 26.56 24.73 26.61 24.97 26.66C27.31 27.15 28.75 27.51 28.75 28.7C28.75 30.05 27.07 30.33 25.67 30.33C24.28 30.33 22.64 30 22.26 28.56C22.2 28.34 22.02 28.19 21.79 28.19H19.05C18.76 28.19 18.53 28.45 18.57 28.74C19 31.86 21.49 33.64 25.52 33.64C28.93 33.64 32.57 32.26 32.57 28.39C32.57 24.8 29.05 24.03 27.16 23.62Z" fill="black"/>
<path d="M65.84 17.7998V17.4498C65.84 17.2198 65.65 17.0298 65.42 17.0298H62.69C62.46 17.0298 62.27 17.2198 62.27 17.4498V18.5098C60.93 17.5798 59.3 17.0298 57.54 17.0298C52.96 17.0298 49.24 20.7498 49.24 25.3298C49.24 29.9098 52.96 33.6298 57.54 33.6298C59.3 33.6298 60.93 33.0798 62.27 32.1498V33.2098C62.27 33.4398 62.46 33.6298 62.69 33.6298H65.43C65.66 33.6298 65.85 33.4398 65.85 33.2098V24.0998L65.84 17.7998ZM57.56 30.0398C54.96 30.0398 52.86 27.9398 52.86 25.3398C52.86 22.7398 54.96 20.6398 57.56 20.6398C60.16 20.6398 62.26 22.7398 62.26 25.3398C62.26 27.9298 60.15 30.0398 57.56 30.0398Z" fill="black"/>
<path d="M16.37 26.5299H16.78C16.99 26.5299 17.17 26.3699 17.19 26.1599C17.22 25.8899 17.23 25.6099 17.23 25.3399C17.23 20.5799 13.22 16.7599 8.39995 17.0499C4.26995 17.3099 0.899953 20.6699 0.639953 24.8099C0.339953 29.6299 4.15995 33.6399 8.92995 33.6399C12.28 33.6399 15.16 31.6599 16.47 28.8099C16.6 28.5299 16.3899 28.2199 16.0899 28.2199H12.86C12.74 28.2199 12.62 28.2799 12.54 28.3699C11.67 29.3999 10.38 30.0599 8.92995 30.0599C6.73995 30.0599 4.89996 28.5599 4.36996 26.5299H13.49H16.37ZM8.92995 20.6199C10.93 20.6199 12.63 21.8599 13.32 23.6199H4.53995C5.22995 21.8599 6.92995 20.6199 8.92995 20.6199Z" fill="black"/>
<path d="M90.76 26.5299H91.17C91.38 26.5299 91.56 26.3699 91.58 26.1599C91.61 25.8899 91.62 25.6099 91.62 25.3399C91.62 20.5799 87.61 16.7599 82.79 17.0499C78.66 17.3099 75.29 20.6699 75.03 24.8099C74.73 29.6299 78.55 33.6399 83.32 33.6399C86.67 33.6399 89.55 31.6599 90.86 28.8099C90.99 28.5299 90.78 28.2199 90.48 28.2199H87.25C87.13 28.2199 87.01 28.2799 86.93 28.3699C86.06 29.3999 84.77 30.0599 83.32 30.0599C81.13 30.0599 79.29 28.5599 78.76 26.5299H87.88H90.76ZM83.31 20.6199C85.31 20.6199 87.01 21.8599 87.7 23.6199H78.92C79.61 21.8599 81.32 20.6199 83.31 20.6199Z" fill="black"/>
<path d="M72.8299 17.51C73.3799 17.29 73.9599 17.13 74.5499 17.07C74.7999 17.04 75.0099 17.24 75.0099 17.49V20.25C75.0099 20.48 74.8199 20.67 74.5899 20.67C74.5399 20.67 74.4899 20.67 74.4299 20.67C72.5499 20.7 71.0799 22.32 71.0799 24.19V33.23C71.0799 33.46 70.8899 33.65 70.6599 33.65H67.9499C67.7199 33.65 67.5299 33.46 67.5299 33.23V17.46C67.5299 17.23 67.7199 17.04 67.9499 17.04H70.6599C70.8899 17.04 71.0799 17.23 71.0799 17.46V18.54C71.0899 18.53 71.8399 17.91 72.8299 17.51Z" fill="black"/>
<path d="M45.4599 18.7799C46.6199 19.8999 47.4499 21.4199 47.7099 22.9299C47.7799 23.3399 47.8199 23.7499 47.8199 24.1599V33.2199C47.8199 33.4499 47.6299 33.6399 47.3999 33.6399H44.6899C44.4599 33.6399 44.2699 33.4499 44.2699 33.2199V24.0699C44.2699 22.1599 42.7099 20.6199 40.7899 20.6599C38.9099 20.6899 37.4399 22.3099 37.4399 24.1799V33.2199C37.4399 33.4499 37.2499 33.6399 37.0199 33.6399H34.3099C34.0799 33.6399 33.8899 33.4499 33.8899 33.2199V12.8199C33.8899 12.5899 34.0799 12.3999 34.3099 12.3999H37.0199C37.2499 12.3999 37.4399 12.5899 37.4399 12.8199V18.5299C37.4399 18.5299 38.1899 17.9099 39.1799 17.5099C39.7299 17.2899 40.3099 17.1299 40.8999 17.0699C40.9099 17.0699 43.2999 16.6899 45.4599 18.7799Z" fill="black"/>
<path d="M104.55 18.7799C105.71 19.8999 106.54 21.4199 106.8 22.9299C106.87 23.3399 106.91 23.7499 106.91 24.1599V33.2199C106.91 33.4499 106.72 33.6399 106.49 33.6399H103.78C103.55 33.6399 103.36 33.4499 103.36 33.2199V24.0699C103.36 22.1599 101.8 20.6199 99.88 20.6599C98 20.6899 96.53 22.3099 96.53 24.1799V33.2199C96.53 33.4499 96.34 33.6399 96.11 33.6399H93.4C93.17 33.6399 92.98 33.4499 92.98 33.2199V12.8199C92.98 12.5899 93.17 12.3999 93.4 12.3999H96.11C96.34 12.3999 96.53 12.5899 96.53 12.8199V18.5299C96.53 18.5299 97.28 17.9099 98.27 17.5099C98.82 17.2899 99.4 17.1299 99.99 17.0699C99.99 17.0699 102.38 16.6899 104.55 18.7799Z" fill="black"/>
<path d="M123.19 0.219971H106.9L124.63 25.34L106.9 50.46H123.19C124.09 50.46 124.94 50.02 125.46 49.28L142.36 25.34L125.46 1.39996C124.94 0.659963 124.09 0.219971 123.19 0.219971Z" fill="#FDB714"/>
<path d="M11.09 71.7202V76.3802H10.55V75.2701C10.37 75.6201 10.12 75.9001 9.79003 76.1101C9.46003 76.3201 9.09003 76.4202 8.67003 76.4202C8.23003 76.4202 7.83003 76.3102 7.47003 76.1002C7.11003 75.8902 6.81003 75.6002 6.60003 75.2302C6.39003 74.8602 6.28003 74.4702 6.28003 74.0402C6.28003 73.6102 6.39003 73.2102 6.60003 72.8502C6.81003 72.4902 7.10003 72.2002 7.47003 71.9802C7.84003 71.7602 8.24003 71.6602 8.67003 71.6602C9.09003 71.6602 9.46003 71.7602 9.79003 71.9702C10.12 72.1802 10.37 72.4602 10.55 72.8102V71.7002H11.09V71.7202ZM9.57003 75.6002C9.84003 75.4402 10.06 75.2202 10.21 74.9502C10.37 74.6802 10.45 74.3801 10.45 74.0501C10.45 73.7201 10.37 73.4201 10.21 73.1501C10.05 72.8801 9.84003 72.6602 9.57003 72.5002C9.30003 72.3402 9.00003 72.2602 8.67003 72.2602C8.35003 72.2602 8.05003 72.3402 7.78003 72.5002C7.51003 72.6602 7.29003 72.8801 7.14003 73.1501C6.98003 73.4201 6.90003 73.7201 6.90003 74.0501C6.90003 74.3801 6.98003 74.6802 7.14003 74.9502C7.30003 75.2202 7.51003 75.4402 7.78003 75.6002C8.05003 75.7602 8.35003 75.8401 8.67003 75.8401C9.00003 75.8401 9.30003 75.7602 9.57003 75.6002Z" fill="#999999"/>
<path d="M21.06 71.9502C21.36 72.1302 21.59 72.3702 21.77 72.6802C21.94 72.9902 22.03 73.3202 22.03 73.6902V76.3902H21.4V73.7102C21.4 73.4502 21.34 73.2202 21.21 73.0002C21.08 72.7802 20.92 72.6102 20.7 72.4902C20.49 72.3602 20.25 72.3002 19.99 72.3002C19.74 72.3002 19.51 72.3602 19.29 72.4902C19.08 72.6202 18.9 72.7902 18.78 73.0002C18.65 73.2102 18.59 73.4502 18.59 73.7102V76.3902H17.97V73.7102C17.97 73.4502 17.91 73.2202 17.78 73.0002C17.65 72.7902 17.48 72.6102 17.27 72.4902C17.06 72.3602 16.82 72.3002 16.57 72.3002C16.31 72.3002 16.08 72.3602 15.86 72.4902C15.65 72.6202 15.48 72.7902 15.35 73.0002C15.22 73.2102 15.16 73.4502 15.16 73.7102V76.3902H14.53V71.7302H15.07V72.6102C15.24 72.3302 15.46 72.1002 15.73 71.9302C16 71.7602 16.31 71.6802 16.65 71.6802C17.03 71.6802 17.38 71.7802 17.7 71.9902C18.02 72.2002 18.25 72.4702 18.41 72.8102C18.56 72.4702 18.78 72.2002 19.08 71.9902C19.38 71.7802 19.72 71.6802 20.09 71.6802C20.43 71.6802 20.76 71.7702 21.06 71.9502Z" fill="#999999"/>
<path d="M27.67 74.2902H23.57C23.61 74.5902 23.71 74.8701 23.88 75.1101C24.05 75.3501 24.26 75.5502 24.52 75.6902C24.78 75.8302 25.06 75.9001 25.37 75.9001C25.72 75.9001 26.03 75.8102 26.32 75.6302C26.61 75.4502 26.82 75.2102 26.98 74.9202L27.46 75.1501C27.27 75.5401 26.99 75.8501 26.61 76.0801C26.23 76.3101 25.82 76.4301 25.37 76.4301C24.94 76.4301 24.54 76.3201 24.18 76.1101C23.81 75.9001 23.52 75.6101 23.31 75.2401C23.1 74.8701 22.99 74.4801 22.99 74.0501C22.99 73.6201 23.1 73.2201 23.31 72.8601C23.52 72.5001 23.81 72.2001 24.18 71.9901C24.55 71.7801 24.95 71.6702 25.38 71.6702C25.81 71.6702 26.21 71.7801 26.56 71.9901C26.91 72.2001 27.18 72.4901 27.39 72.8601C27.59 73.2301 27.69 73.6201 27.69 74.0501C27.69 74.1101 27.68 74.1902 27.67 74.2902ZM24.54 72.4202C24.28 72.5602 24.06 72.7501 23.89 72.9901C23.72 73.2301 23.61 73.4902 23.57 73.7802H27.17C27.13 73.4902 27.03 73.2301 26.86 72.9901C26.69 72.7501 26.48 72.5602 26.22 72.4202C25.96 72.2802 25.68 72.2101 25.38 72.2101C25.08 72.2101 24.8 72.2802 24.54 72.4202Z" fill="#999999"/>
<path d="M35.3401 71.9502C35.6401 72.1302 35.8701 72.3702 36.0501 72.6802C36.2201 72.9902 36.3101 73.3202 36.3101 73.6902V76.3902H35.6801V73.7102C35.6801 73.4502 35.6201 73.2202 35.4901 73.0002C35.3601 72.7802 35.2001 72.6102 34.9801 72.4902C34.7701 72.3602 34.5301 72.3002 34.2701 72.3002C34.0201 72.3002 33.7901 72.3602 33.5701 72.4902C33.3601 72.6202 33.1801 72.7902 33.0601 73.0002C32.9301 73.2102 32.8701 73.4502 32.8701 73.7102V76.3902H32.2501V73.7102C32.2501 73.4502 32.1901 73.2202 32.0601 73.0002C31.9301 72.7902 31.7601 72.6102 31.5501 72.4902C31.3401 72.3602 31.1001 72.3002 30.8501 72.3002C30.5901 72.3002 30.3601 72.3602 30.1401 72.4902C29.9301 72.6202 29.7601 72.7902 29.6301 73.0002C29.5001 73.2102 29.4401 73.4502 29.4401 73.7102V76.3902H28.8101V71.7302H29.3501V72.6102C29.5201 72.3302 29.7401 72.1002 30.0101 71.9302C30.2801 71.7602 30.5901 71.6802 30.9301 71.6802C31.3101 71.6802 31.6601 71.7802 31.9801 71.9902C32.3001 72.2002 32.5301 72.4702 32.6901 72.8102C32.8401 72.4702 33.0601 72.2002 33.3601 71.9902C33.6601 71.7802 34.0001 71.6802 34.3701 71.6802C34.7101 71.6802 35.0401 71.7702 35.3401 71.9502Z" fill="#999999"/>
<path d="M41.14 72.0001C41.51 72.2101 41.8 72.5001 42.01 72.8701C42.22 73.2401 42.33 73.6301 42.33 74.0601C42.33 74.4901 42.22 74.8901 42.01 75.2501C41.8 75.6101 41.51 75.9101 41.14 76.1201C40.77 76.3301 40.37 76.4401 39.94 76.4401C39.52 76.4401 39.15 76.3401 38.82 76.1301C38.49 75.9201 38.24 75.6401 38.06 75.2901V76.4001H37.52V69.6201H38.15V72.6701C38.34 72.3601 38.59 72.1201 38.9 71.9501C39.21 71.7801 39.55 71.6901 39.94 71.6901C40.37 71.6801 40.77 71.7801 41.14 72.0001ZM40.82 75.6001C41.09 75.4401 41.31 75.2201 41.46 74.9501C41.62 74.6801 41.7 74.3801 41.7 74.0501C41.7 73.7201 41.62 73.4201 41.46 73.1501C41.3 72.8801 41.09 72.6601 40.82 72.5001C40.55 72.3401 40.25 72.2601 39.92 72.2601C39.6 72.2601 39.3 72.3401 39.03 72.5001C38.76 72.6601 38.54 72.8801 38.39 73.1501C38.23 73.4201 38.15 73.7201 38.15 74.0501C38.15 74.3801 38.23 74.6801 38.39 74.9501C38.55 75.2201 38.76 75.4401 39.03 75.6001C39.3 75.7601 39.6 75.8401 39.92 75.8401C40.24 75.8401 40.54 75.7601 40.82 75.6001Z" fill="#999999"/>
<path d="M48.04 74.2902H43.94C43.98 74.5902 44.08 74.8701 44.25 75.1101C44.42 75.3501 44.63 75.5502 44.89 75.6902C45.15 75.8302 45.43 75.9001 45.74 75.9001C46.09 75.9001 46.4 75.8102 46.69 75.6302C46.98 75.4502 47.19 75.2102 47.35 74.9202L47.83 75.1501C47.64 75.5401 47.36 75.8501 46.98 76.0801C46.6 76.3101 46.19 76.4301 45.74 76.4301C45.31 76.4301 44.91 76.3201 44.55 76.1101C44.18 75.9001 43.89 75.6101 43.68 75.2401C43.47 74.8701 43.36 74.4801 43.36 74.0501C43.36 73.6201 43.47 73.2201 43.68 72.8601C43.89 72.5001 44.18 72.2001 44.55 71.9901C44.92 71.7801 45.32 71.6702 45.75 71.6702C46.18 71.6702 46.58 71.7801 46.93 71.9901C47.28 72.2001 47.55 72.4901 47.76 72.8601C47.96 73.2301 48.06 73.6201 48.06 74.0501C48.06 74.1101 48.05 74.1902 48.04 74.2902ZM44.91 72.4202C44.65 72.5602 44.43 72.7501 44.26 72.9901C44.09 73.2301 43.98 73.4902 43.94 73.7802H47.54C47.5 73.4902 47.4 73.2301 47.23 72.9901C47.06 72.7501 46.85 72.5602 46.59 72.4202C46.33 72.2802 46.05 72.2101 45.75 72.2101C45.45 72.2101 45.17 72.2802 44.91 72.4202Z" fill="#999999"/>
<path d="M51.82 71.72V72.3H51.49C51.18 72.3 50.9 72.38 50.64 72.53C50.38 72.68 50.18 72.89 50.02 73.15C49.87 73.41 49.79 73.7 49.79 74.01V76.39H49.16V71.73H49.7V72.92C49.89 72.55 50.16 72.26 50.49 72.04C50.82 71.82 51.2 71.71 51.62 71.71H51.82V71.72Z" fill="#999999"/>
<path d="M55.86 76.1201C55.49 75.9101 55.2 75.6202 54.98 75.2502C54.77 74.8802 54.66 74.4801 54.66 74.0501C54.66 73.6201 54.77 73.2201 54.98 72.8601C55.19 72.5001 55.49 72.2101 55.86 71.9901C56.23 71.7801 56.63 71.6702 57.08 71.6702C57.52 71.6702 57.92 71.7801 58.29 71.9901C58.66 72.2001 58.95 72.4901 59.17 72.8601C59.38 73.2301 59.49 73.6201 59.49 74.0501C59.49 74.4901 59.38 74.8902 59.17 75.2502C58.96 75.6202 58.66 75.9001 58.29 76.1201C57.92 76.3301 57.52 76.4402 57.08 76.4402C56.64 76.4402 56.23 76.3301 55.86 76.1201ZM57.97 75.6002C58.24 75.4402 58.46 75.2202 58.61 74.9502C58.77 74.6802 58.85 74.3801 58.85 74.0501C58.85 73.7201 58.77 73.4201 58.61 73.1501C58.45 72.8801 58.24 72.6602 57.97 72.5002C57.7 72.3402 57.4 72.2602 57.07 72.2602C56.75 72.2602 56.45 72.3402 56.18 72.5002C55.91 72.6602 55.69 72.8801 55.54 73.1501C55.38 73.4201 55.3 73.7201 55.3 74.0501C55.3 74.3801 55.38 74.6802 55.54 74.9502C55.7 75.2202 55.91 75.4402 56.18 75.6002C56.45 75.7602 56.75 75.8401 57.07 75.8401C57.4 75.8401 57.7 75.7602 57.97 75.6002Z" fill="#999999"/>
<path d="M62 70.3901C61.82 70.5701 61.73 70.8001 61.73 71.0601V71.7101H63.18V72.3101H61.73V76.3901H61.1V72.3101H60.22V71.7101H61.1V71.08C61.1 70.8 61.17 70.5501 61.31 70.3201C61.45 70.0901 61.63 69.9001 61.87 69.7601C62.1 69.6201 62.36 69.55 62.63 69.55H63.46V70.1201H62.66C62.4 70.1201 62.18 70.2101 62 70.3901Z" fill="#999999"/>
<path d="M71.07 69.6101V76.3901H70.53V75.2801C70.34 75.6301 70.09 75.9101 69.76 76.1201C69.43 76.3301 69.06 76.4301 68.64 76.4301C68.2 76.4301 67.8 76.3201 67.44 76.1101C67.08 75.9001 66.78 75.6101 66.57 75.2401C66.36 74.8701 66.25 74.4801 66.25 74.0501C66.25 73.6201 66.36 73.2201 66.57 72.8601C66.78 72.5001 67.07 72.2101 67.44 71.9901C67.81 71.7701 68.21 71.6701 68.64 71.6701C69.02 71.6701 69.37 71.7601 69.68 71.9301C69.99 72.1001 70.24 72.3401 70.43 72.6501V69.6001H71.07V69.6101ZM69.54 75.6001C69.81 75.4401 70.03 75.2201 70.19 74.9501C70.35 74.6801 70.43 74.3801 70.43 74.0501C70.43 73.7201 70.35 73.4201 70.19 73.1501C70.03 72.8801 69.81 72.6601 69.54 72.5001C69.27 72.3401 68.97 72.2601 68.65 72.2601C68.33 72.2601 68.03 72.3401 67.76 72.5001C67.49 72.6601 67.27 72.8801 67.11 73.1501C66.95 73.4201 66.87 73.7201 66.87 74.0501C66.87 74.3801 66.95 74.6801 67.11 74.9501C67.27 75.2201 67.49 75.4401 67.76 75.6001C68.03 75.7601 68.33 75.8401 68.65 75.8401C68.98 75.8401 69.27 75.7601 69.54 75.6001Z" fill="#999999"/>
<path d="M75.81 71.9702C76.13 72.1602 76.38 72.4202 76.57 72.7502C76.76 73.0802 76.85 73.4402 76.85 73.8302V76.3902H76.22V73.8402C76.22 73.5602 76.15 73.3002 76.01 73.0602C75.87 72.8202 75.69 72.6302 75.45 72.4902C75.21 72.3502 74.96 72.2802 74.68 72.2802C74.4 72.2802 74.15 72.3502 73.91 72.4902C73.67 72.6302 73.49 72.8202 73.35 73.0602C73.21 73.3002 73.14 73.5602 73.14 73.8402V76.3902H72.51V71.7302H73.05V72.7102C73.22 72.4002 73.46 72.1502 73.76 71.9602C74.06 71.7702 74.39 71.6802 74.76 71.6802C75.13 71.6802 75.49 71.7702 75.81 71.9702Z" fill="#999999"/>
<path d="M82.6001 71.7202V76.3802H82.06V75.2701C81.88 75.6201 81.63 75.9001 81.3 76.1101C80.97 76.3201 80.6 76.4202 80.18 76.4202C79.74 76.4202 79.34 76.3102 78.98 76.1002C78.62 75.8902 78.32 75.6002 78.11 75.2302C77.9 74.8602 77.79 74.4702 77.79 74.0402C77.79 73.6102 77.9 73.2102 78.11 72.8502C78.32 72.4902 78.61 72.2002 78.98 71.9802C79.35 71.7602 79.75 71.6602 80.18 71.6602C80.6 71.6602 80.97 71.7602 81.3 71.9702C81.63 72.1802 81.88 72.4602 82.06 72.8102V71.7002H82.6001V71.7202ZM81.09 75.6002C81.36 75.4402 81.58 75.2202 81.73 74.9502C81.89 74.6802 81.97 74.3801 81.97 74.0501C81.97 73.7201 81.89 73.4201 81.73 73.1501C81.57 72.8801 81.36 72.6602 81.09 72.5002C80.82 72.3402 80.52 72.2602 80.19 72.2602C79.87 72.2602 79.57 72.3402 79.3 72.5002C79.03 72.6602 78.81 72.8801 78.66 73.1501C78.5 73.4201 78.42 73.7201 78.42 74.0501C78.42 74.3801 78.5 74.6802 78.66 74.9502C78.82 75.2202 79.03 75.4402 79.3 75.6002C79.57 75.7602 79.87 75.8401 80.19 75.8401C80.52 75.8401 80.82 75.7602 81.09 75.6002Z" fill="#999999"/>
<path d="M88.2 71.5V76.38H87.16V75.7C86.99 75.94 86.78 76.13 86.53 76.27C86.28 76.41 86 76.48 85.69 76.48C85.3 76.48 84.94 76.38 84.63 76.18C84.31 75.98 84.06 75.71 83.88 75.36C83.7 75.02 83.61 74.64 83.61 74.24V71.5H84.86V74.2C84.86 74.49 84.96 74.74 85.16 74.94C85.36 75.15 85.61 75.25 85.91 75.25C86.19 75.25 86.44 75.15 86.64 74.94C86.84 74.73 86.95 74.49 86.95 74.2V71.5H88.2Z" fill="#999999"/>
<path d="M92.73 71.7002C93.05 71.9002 93.3 72.1701 93.48 72.5201C93.66 72.8601 93.75 73.2402 93.75 73.6402V76.3902H92.5V73.6801C92.5 73.3901 92.4 73.1402 92.19 72.9402C91.98 72.7402 91.74 72.6302 91.45 72.6302C91.17 72.6302 90.92 72.7302 90.72 72.9402C90.52 73.1502 90.41 73.3901 90.41 73.6801V76.3902H89.16V71.5102H90.2V72.2002C90.37 71.9502 90.58 71.7501 90.83 71.6101C91.08 71.4701 91.36 71.4001 91.67 71.4001C92.06 71.4001 92.42 71.5002 92.73 71.7002Z" fill="#999999"/>
<path d="M94.5601 69.8901H95.8701V70.9001H94.5601V69.8901ZM94.5901 71.5001H95.8401V76.3801H94.5901V71.5001Z" fill="#999999"/>
<path d="M98.04 76.1402C97.64 75.9102 97.32 75.6001 97.08 75.2101C96.85 74.8201 96.73 74.3901 96.73 73.9301C96.73 73.4701 96.85 73.0402 97.08 72.6602C97.31 72.2702 97.63 71.9601 98.04 71.7401C98.45 71.5201 98.88 71.4001 99.36 71.4001C99.84 71.4001 100.27 71.5101 100.67 71.7401C101.07 71.9701 101.38 72.2802 101.62 72.6602C101.85 73.0502 101.97 73.4701 101.97 73.9301C101.97 74.3901 101.85 74.8201 101.62 75.2101C101.39 75.6001 101.07 75.9102 100.67 76.1402C100.27 76.3702 99.84 76.4802 99.36 76.4802C98.88 76.4802 98.44 76.3702 98.04 76.1402ZM100.03 75.1402C100.24 75.0202 100.4 74.8502 100.53 74.6402C100.65 74.4302 100.71 74.2002 100.71 73.9502C100.71 73.7002 100.65 73.4702 100.53 73.2602C100.41 73.0502 100.24 72.8802 100.03 72.7602C99.82 72.6402 99.59 72.5801 99.34 72.5801C99.09 72.5801 98.86 72.6402 98.65 72.7602C98.44 72.8802 98.28 73.0502 98.15 73.2602C98.03 73.4702 97.97 73.7002 97.97 73.9502C97.97 74.2002 98.03 74.4302 98.15 74.6402C98.27 74.8502 98.44 75.0202 98.65 75.1402C98.86 75.2602 99.09 75.3202 99.34 75.3202C99.59 75.3202 99.82 75.2602 100.03 75.1402Z" fill="#999999"/>
<path d="M106.39 71.7002C106.71 71.9002 106.96 72.1701 107.14 72.5201C107.32 72.8601 107.41 73.2402 107.41 73.6402V76.3902H106.16V73.6801C106.16 73.3901 106.06 73.1402 105.85 72.9402C105.64 72.7402 105.4 72.6302 105.11 72.6302C104.83 72.6302 104.58 72.7302 104.38 72.9402C104.18 73.1502 104.07 73.3901 104.07 73.6801V76.3902H102.82V71.5102H103.86V72.2002C104.03 71.9502 104.24 71.7501 104.49 71.6101C104.74 71.4701 105.02 71.4001 105.33 71.4001C105.71 71.4001 106.07 71.5002 106.39 71.7002Z" fill="#999999"/>
<path d="M111.73 70.3901C111.55 70.5701 111.46 70.8001 111.46 71.0601V71.7101H112.91V72.3101H111.46V76.3901H110.83V72.3101H109.95V71.7101H110.83V71.08C110.83 70.8 110.9 70.5501 111.04 70.3201C111.18 70.0901 111.36 69.9001 111.6 69.7601C111.83 69.6201 112.09 69.55 112.36 69.55H113.19V70.1201H112.39C112.12 70.1201 111.91 70.2101 111.73 70.3901Z" fill="#999999"/>
<path d="M118.61 71.7202V76.3802H118.07V75.2701C117.89 75.6201 117.64 75.9001 117.31 76.1101C116.98 76.3201 116.61 76.4202 116.19 76.4202C115.75 76.4202 115.35 76.3102 114.99 76.1002C114.63 75.8902 114.33 75.6002 114.12 75.2302C113.91 74.8602 113.8 74.4702 113.8 74.0402C113.8 73.6102 113.91 73.2102 114.12 72.8502C114.33 72.4902 114.62 72.2002 114.99 71.9802C115.36 71.7602 115.76 71.6602 116.19 71.6602C116.61 71.6602 116.98 71.7602 117.31 71.9702C117.64 72.1802 117.89 72.4602 118.07 72.8102V71.7002H118.61V71.7202ZM117.1 75.6002C117.37 75.4402 117.59 75.2202 117.74 74.9502C117.9 74.6802 117.98 74.3801 117.98 74.0501C117.98 73.7201 117.9 73.4201 117.74 73.1501C117.58 72.8801 117.37 72.6602 117.1 72.5002C116.83 72.3402 116.53 72.2602 116.2 72.2602C115.88 72.2602 115.58 72.3402 115.31 72.5002C115.04 72.6602 114.82 72.8801 114.67 73.1501C114.51 73.4201 114.43 73.7201 114.43 74.0501C114.43 74.3801 114.51 74.6802 114.67 74.9502C114.83 75.2202 115.04 75.4402 115.31 75.6002C115.58 75.7602 115.88 75.8401 116.2 75.8401C116.52 75.8401 116.82 75.7602 117.1 75.6002Z" fill="#999999"/>
<path d="M126.5 71.9502C126.8 72.1302 127.03 72.3702 127.21 72.6802C127.38 72.9902 127.47 73.3202 127.47 73.6902V76.3902H126.84V73.7102C126.84 73.4502 126.78 73.2202 126.65 73.0002C126.52 72.7802 126.36 72.6102 126.14 72.4902C125.93 72.3602 125.69 72.3002 125.43 72.3002C125.18 72.3002 124.95 72.3602 124.73 72.4902C124.52 72.6202 124.34 72.7902 124.22 73.0002C124.09 73.2102 124.03 73.4502 124.03 73.7102V76.3902H123.41V73.7102C123.41 73.4502 123.35 73.2202 123.22 73.0002C123.09 72.7902 122.92 72.6102 122.71 72.4902C122.5 72.3602 122.26 72.3002 122.01 72.3002C121.75 72.3002 121.52 72.3602 121.3 72.4902C121.09 72.6202 120.92 72.7902 120.79 73.0002C120.66 73.2102 120.6 73.4502 120.6 73.7102V76.3902H119.97V71.7302H120.51V72.6102C120.68 72.3302 120.9 72.1002 121.17 71.9302C121.44 71.7602 121.75 71.6802 122.09 71.6802C122.47 71.6802 122.82 71.7802 123.14 71.9902C123.46 72.2002 123.69 72.4702 123.85 72.8102C124 72.4702 124.22 72.2002 124.52 71.9902C124.82 71.7802 125.16 71.6802 125.53 71.6802C125.87 71.6802 126.2 71.7702 126.5 71.9502Z" fill="#999999"/>
<path d="M128.53 70.23H129.29V70.89H128.53V70.23ZM128.59 71.72H129.22V76.38H128.59V71.72Z" fill="#999999"/>
<path d="M130.97 76.1001C130.78 75.9101 130.69 75.6801 130.69 75.4101V69.6101H131.31V75.4501C131.31 75.5501 131.34 75.6401 131.41 75.7001C131.48 75.7601 131.56 75.8001 131.66 75.8001H131.8V76.3901H131.66C131.39 76.3901 131.16 76.2901 130.97 76.1001Z" fill="#999999"/>
<path d="M136.73 71.72L134.49 77.45C134.37 77.8 134.18 78.07 133.92 78.27C133.66 78.47 133.34 78.57 132.94 78.57H132.32V77.97H132.93C133.39 77.97 133.71 77.76 133.89 77.33L134.27 76.39H133.94L132.16 71.73H132.8L134.42 75.98L136.09 71.73H136.73V71.72Z" fill="#999999"/>
<path d="M0.779976 66.5801H0.47998V82.7601H0.779976V66.5801Z" fill="#999999"/>
<path d="M142.51 66.5801H142.21V82.7601H142.51V66.5801Z" fill="#999999"/>
</svg>
