<svg width="107" height="52" viewBox="0 0 107 52" fill="none" xmlns="http://www.w3.org/2000/svg">
<path d="M27.16 11.2201C26.83 11.1401 26.5 11.0701 26.17 11.0001C24.04 10.5401 22.65 10.1701 22.65 9.20007C22.65 8.01007 24.5 7.88007 25.29 7.88007C26.32 7.88007 28.07 8.14007 28.23 9.85007L28.24 9.93005C28.26 10.1801 28.47 10.3701 28.72 10.3701H31.42C31.7 10.3701 31.92 10.1401 31.9 9.86008L31.89 9.76007C31.69 6.32007 29.4 4.57007 25.08 4.57007C22.07 4.57007 18.83 6.07008 18.83 9.36008C18.83 12.9101 22.36 13.6901 24.25 14.1101C24.49 14.1601 24.73 14.2101 24.97 14.2601C27.31 14.7501 28.75 15.1101 28.75 16.3001C28.75 17.6501 27.07 17.9301 25.67 17.9301C24.28 17.9301 22.64 17.6001 22.26 16.1601C22.2 15.9401 22.02 15.7901 21.79 15.7901H19.05C18.76 15.7901 18.53 16.0501 18.57 16.3401C19 19.4601 21.49 21.2401 25.52 21.2401C28.93 21.2401 32.57 19.8601 32.57 15.9901C32.57 12.4001 29.05 11.6301 27.16 11.2201Z" fill="black"/>
<path d="M65.84 5.39987V5.0499C65.84 4.8199 65.65 4.62988 65.42 4.62988H62.69C62.46 4.62988 62.27 4.8199 62.27 5.0499V6.10989C60.93 5.17989 59.3 4.62988 57.54 4.62988C52.96 4.62988 49.24 8.34987 49.24 12.9299C49.24 17.5099 52.96 21.2299 57.54 21.2299C59.3 21.2299 60.93 20.6799 62.27 19.7499V20.8099C62.27 21.0399 62.46 21.2299 62.69 21.2299H65.43C65.66 21.2299 65.85 21.0399 65.85 20.8099V11.6999L65.84 5.39987ZM57.56 17.6399C54.96 17.6399 52.86 15.5399 52.86 12.9399C52.86 10.3399 54.96 8.2399 57.56 8.2399C60.16 8.2399 62.26 10.3399 62.26 12.9399C62.26 15.5299 60.15 17.6399 57.56 17.6399Z" fill="black"/>
<path d="M16.37 14.13H16.78C16.99 14.13 17.17 13.97 17.19 13.76C17.22 13.49 17.23 13.21 17.23 12.94C17.23 8.18002 13.22 4.36001 8.39995 4.65001C4.26995 4.91001 0.899953 8.27002 0.639953 12.41C0.339953 17.23 4.15995 21.24 8.92995 21.24C12.28 21.24 15.16 19.26 16.47 16.41C16.6 16.13 16.3899 15.82 16.0899 15.82H12.86C12.74 15.82 12.62 15.88 12.54 15.97C11.67 17 10.38 17.66 8.92995 17.66C6.73995 17.66 4.89996 16.16 4.36996 14.13H13.49H16.37ZM8.92995 8.22002C10.93 8.22002 12.63 9.46002 13.32 11.22H4.53995C5.22995 9.46002 6.92995 8.22002 8.92995 8.22002Z" fill="black"/>
<path d="M90.76 14.13H91.17C91.38 14.13 91.56 13.97 91.58 13.76C91.61 13.49 91.62 13.21 91.62 12.94C91.62 8.18002 87.61 4.36001 82.79 4.65001C78.66 4.91001 75.29 8.27002 75.03 12.41C74.73 17.23 78.55 21.24 83.32 21.24C86.67 21.24 89.55 19.26 90.86 16.41C90.99 16.13 90.78 15.82 90.48 15.82H87.25C87.13 15.82 87.01 15.88 86.93 15.97C86.06 17 84.77 17.66 83.32 17.66C81.13 17.66 79.29 16.16 78.76 14.13H87.88H90.76ZM83.31 8.22002C85.31 8.22002 87.01 9.46002 87.7 11.22H78.92C79.61 9.46002 81.32 8.22002 83.31 8.22002Z" fill="black"/>
<path d="M72.8299 5.11014C73.3799 4.89014 73.9599 4.73014 74.5499 4.67014C74.7999 4.64014 75.0099 4.84012 75.0099 5.09012V7.85013C75.0099 8.08013 74.8199 8.27014 74.5899 8.27014C74.5399 8.27014 74.4899 8.27014 74.4299 8.27014C72.5499 8.30014 71.0799 9.92013 71.0799 11.7901V20.8301C71.0799 21.0601 70.8899 21.2501 70.6599 21.2501H67.9499C67.7199 21.2501 67.5299 21.0601 67.5299 20.8301V5.06012C67.5299 4.83012 67.7199 4.64014 67.9499 4.64014H70.6599C70.8899 4.64014 71.0799 4.83012 71.0799 5.06012V6.14014C71.0899 6.13014 71.8399 5.51014 72.8299 5.11014Z" fill="black"/>
<path d="M45.4599 6.38C46.6199 7.5 47.4499 9.02 47.7099 10.53C47.7799 10.94 47.8199 11.35 47.8199 11.76V20.82C47.8199 21.05 47.6299 21.24 47.3999 21.24H44.6899C44.4599 21.24 44.2699 21.05 44.2699 20.82V11.67C44.2699 9.76001 42.7099 8.22001 40.7899 8.26001C38.9099 8.29001 37.4399 9.91 37.4399 11.78V20.82C37.4399 21.05 37.2499 21.24 37.0199 21.24H34.3099C34.0799 21.24 33.8899 21.05 33.8899 20.82V0.420013C33.8899 0.190013 34.0799 0 34.3099 0H37.0199C37.2499 0 37.4399 0.190013 37.4399 0.420013V6.13C37.4399 6.13 38.1899 5.51002 39.1799 5.11002C39.7299 4.89002 40.3099 4.73001 40.8999 4.67001C40.9099 4.67001 43.2999 4.29 45.4599 6.38Z" fill="black"/>
<path d="M104.55 6.38C105.71 7.5 106.54 9.02 106.8 10.53C106.87 10.94 106.91 11.35 106.91 11.76V20.82C106.91 21.05 106.72 21.24 106.49 21.24H103.78C103.55 21.24 103.36 21.05 103.36 20.82V11.67C103.36 9.76001 101.8 8.22001 99.88 8.26001C98 8.29001 96.53 9.91 96.53 11.78V20.82C96.53 21.05 96.34 21.24 96.11 21.24H93.4C93.17 21.24 92.98 21.05 92.98 20.82V0.420013C92.98 0.190013 93.17 0 93.4 0H96.11C96.34 0 96.53 0.190013 96.53 0.420013V6.13C96.53 6.13 97.28 5.51002 98.27 5.11002C98.82 4.89002 99.4 4.73001 99.99 4.67001C99.99 4.67001 102.38 4.29 104.55 6.38Z" fill="black"/>
<path d="M8.43737 43.6751V47.17H8.03238V46.3376C7.89739 46.6 7.70989 46.81 7.4624 46.9675C7.2149 47.125 6.93741 47.2001 6.62241 47.2001C6.29242 47.2001 5.99243 47.1175 5.72244 46.9601C5.45244 46.8026 5.22745 46.5851 5.06995 46.3076C4.91245 46.0301 4.82996 45.7376 4.82996 45.4151C4.82996 45.0926 4.91245 44.7926 5.06995 44.5226C5.22745 44.2526 5.44494 44.0351 5.72244 43.8701C5.99993 43.7051 6.29992 43.6301 6.62241 43.6301C6.93741 43.6301 7.2149 43.7051 7.4624 43.8626C7.70989 44.0201 7.89739 44.2301 8.03238 44.4926V43.6601H8.43737V43.6751ZM7.2974 46.5851C7.49989 46.4651 7.66489 46.3001 7.77739 46.0976C7.89738 45.8951 7.95738 45.6701 7.95738 45.4226C7.95738 45.1751 7.89738 44.9501 7.77739 44.7476C7.65739 44.5451 7.49989 44.3801 7.2974 44.2601C7.0949 44.1401 6.86991 44.0801 6.62241 44.0801C6.38242 44.0801 6.15743 44.1401 5.95493 44.2601C5.75243 44.3801 5.58744 44.5451 5.47494 44.7476C5.35494 44.9501 5.29495 45.1751 5.29495 45.4226C5.29495 45.6701 5.35494 45.8951 5.47494 46.0976C5.59494 46.3001 5.75243 46.4651 5.95493 46.5851C6.15743 46.7051 6.38242 46.765 6.62241 46.765C6.86991 46.765 7.0949 46.7051 7.2974 46.5851Z" fill="#999999"/>
<path d="M15.9146 43.8475C16.1396 43.9825 16.3121 44.1625 16.4471 44.395C16.5746 44.6275 16.6421 44.875 16.6421 45.1525V47.1775H16.1696V45.1675C16.1696 44.9725 16.1246 44.8 16.0271 44.635C15.9296 44.47 15.8096 44.3425 15.6446 44.2525C15.4871 44.155 15.3071 44.11 15.1121 44.11C14.9246 44.11 14.7521 44.155 14.5871 44.2525C14.4296 44.35 14.2946 44.4775 14.2046 44.635C14.1071 44.7925 14.0621 44.9725 14.0621 45.1675V47.1775H13.5972V45.1675C13.5972 44.9725 13.5522 44.8 13.4547 44.635C13.3572 44.4775 13.2297 44.3425 13.0722 44.2525C12.9147 44.155 12.7347 44.11 12.5472 44.11C12.3522 44.11 12.1797 44.155 12.0147 44.2525C11.8572 44.35 11.7297 44.4775 11.6322 44.635C11.5347 44.7925 11.4897 44.9725 11.4897 45.1675V47.1775H11.0172V43.6825H11.4222V44.3425C11.5497 44.1325 11.7147 43.96 11.9172 43.8325C12.1197 43.705 12.3522 43.645 12.6072 43.645C12.8922 43.645 13.1547 43.72 13.3947 43.8775C13.6346 44.035 13.8072 44.2375 13.9271 44.4925C14.0396 44.2375 14.2046 44.035 14.4296 43.8775C14.6546 43.72 14.9096 43.645 15.1871 43.645C15.4421 43.645 15.6896 43.7125 15.9146 43.8475Z" fill="#999999"/>
<path d="M20.872 45.6024H17.7971C17.8271 45.8274 17.902 46.0374 18.0295 46.2174C18.157 46.3974 18.3145 46.5474 18.5095 46.6524C18.7045 46.7574 18.9145 46.8099 19.147 46.8099C19.4095 46.8099 19.642 46.7424 19.8595 46.6074C20.077 46.4724 20.2345 46.2924 20.3545 46.0749L20.7145 46.2474C20.572 46.5399 20.362 46.7724 20.077 46.9449C19.792 47.1174 19.4845 47.2074 19.147 47.2074C18.8245 47.2074 18.5245 47.1248 18.2545 46.9674C17.977 46.8099 17.7596 46.5924 17.6021 46.3149C17.4446 46.0374 17.3621 45.7449 17.3621 45.4224C17.3621 45.0999 17.4446 44.7999 17.6021 44.5299C17.7596 44.2599 17.977 44.0349 18.2545 43.8774C18.532 43.7199 18.832 43.6375 19.1545 43.6375C19.477 43.6375 19.777 43.7199 20.0395 43.8774C20.302 44.0349 20.5045 44.2524 20.662 44.5299C20.812 44.8074 20.887 45.0999 20.887 45.4224C20.887 45.4674 20.8795 45.5274 20.872 45.6024ZM18.5245 44.1999C18.3295 44.3049 18.1645 44.4474 18.037 44.6274C17.9095 44.8074 17.8271 45.0024 17.7971 45.2199H20.497C20.467 45.0024 20.392 44.8074 20.2645 44.6274C20.137 44.4474 19.9795 44.3049 19.7845 44.1999C19.5895 44.0949 19.3795 44.0424 19.1545 44.0424C18.9295 44.0424 18.7195 44.0949 18.5245 44.1999Z" fill="#999999"/>
<path d="M26.6244 43.8475C26.8494 43.9825 27.0219 44.1625 27.1569 44.395C27.2844 44.6275 27.3519 44.875 27.3519 45.1525V47.1775H26.8794V45.1675C26.8794 44.9725 26.8344 44.8 26.7369 44.635C26.6394 44.47 26.5194 44.3425 26.3544 44.2525C26.197 44.155 26.017 44.11 25.822 44.11C25.6345 44.11 25.462 44.155 25.297 44.2525C25.1395 44.35 25.0045 44.4775 24.9145 44.635C24.817 44.7925 24.772 44.9725 24.772 45.1675V47.1775H24.307V45.1675C24.307 44.9725 24.262 44.8 24.1645 44.635C24.067 44.4775 23.9395 44.3425 23.782 44.2525C23.6245 44.155 23.4445 44.11 23.257 44.11C23.062 44.11 22.8895 44.155 22.7245 44.2525C22.567 44.35 22.4395 44.4775 22.342 44.635C22.2445 44.7925 22.1995 44.9725 22.1995 45.1675V47.1775H21.7271V43.6825H22.132V44.3425C22.2595 44.1325 22.4245 43.96 22.627 43.8325C22.8295 43.705 23.062 43.645 23.317 43.645C23.602 43.645 23.8645 43.72 24.1045 43.8775C24.3445 44.035 24.517 44.2375 24.637 44.4925C24.7495 44.2375 24.9145 44.035 25.1395 43.8775C25.3645 43.72 25.6195 43.645 25.897 43.645C26.152 43.645 26.3994 43.7125 26.6244 43.8475Z" fill="#999999"/>
<path d="M30.9743 43.8851C31.2518 44.0426 31.4693 44.26 31.6268 44.5375C31.7843 44.815 31.8668 45.1075 31.8668 45.43C31.8668 45.7525 31.7843 46.0525 31.6268 46.3225C31.4693 46.5925 31.2518 46.8175 30.9743 46.975C30.6968 47.1325 30.3969 47.215 30.0744 47.215C29.7594 47.215 29.4819 47.14 29.2344 46.9825C28.9869 46.825 28.7994 46.615 28.6644 46.3525V47.185H28.2594V42.1001H28.7319V44.3876C28.8744 44.1551 29.0619 43.9751 29.2944 43.8476C29.5269 43.7201 29.7819 43.6526 30.0744 43.6526C30.3969 43.6451 30.6968 43.7201 30.9743 43.8851ZM30.7343 46.585C30.9368 46.465 31.1018 46.3 31.2143 46.0975C31.3343 45.895 31.3943 45.67 31.3943 45.4225C31.3943 45.175 31.3343 44.95 31.2143 44.7475C31.0943 44.545 30.9368 44.38 30.7343 44.2601C30.5318 44.1401 30.3069 44.0801 30.0594 44.0801C29.8194 44.0801 29.5944 44.1401 29.3919 44.2601C29.1894 44.38 29.0244 44.545 28.9119 44.7475C28.7919 44.95 28.7319 45.175 28.7319 45.4225C28.7319 45.67 28.7919 45.895 28.9119 46.0975C29.0319 46.3 29.1894 46.465 29.3919 46.585C29.5944 46.705 29.8194 46.765 30.0594 46.765C30.2994 46.765 30.5243 46.705 30.7343 46.585Z" fill="#999999"/>
<path d="M36.1492 45.6024H33.0743C33.1043 45.8274 33.1793 46.0374 33.3068 46.2174C33.4343 46.3974 33.5918 46.5474 33.7868 46.6524C33.9818 46.7574 34.1917 46.8099 34.4242 46.8099C34.6867 46.8099 34.9192 46.7424 35.1367 46.6074C35.3542 46.4724 35.5117 46.2924 35.6317 46.0749L35.9917 46.2474C35.8492 46.5399 35.6392 46.7724 35.3542 46.9449C35.0692 47.1174 34.7617 47.2074 34.4242 47.2074C34.1018 47.2074 33.8018 47.1248 33.5318 46.9674C33.2543 46.8099 33.0368 46.5924 32.8793 46.3149C32.7218 46.0374 32.6393 45.7449 32.6393 45.4224C32.6393 45.0999 32.7218 44.7999 32.8793 44.5299C33.0368 44.2599 33.2543 44.0349 33.5318 43.8774C33.8093 43.7199 34.1092 43.6375 34.4317 43.6375C34.7542 43.6375 35.0542 43.7199 35.3167 43.8774C35.5792 44.0349 35.7817 44.2524 35.9392 44.5299C36.0892 44.8074 36.1642 45.0999 36.1642 45.4224C36.1642 45.4674 36.1567 45.5274 36.1492 45.6024ZM33.8018 44.1999C33.6068 44.3049 33.4418 44.4474 33.3143 44.6274C33.1868 44.8074 33.1043 45.0024 33.0743 45.2199H35.7742C35.7442 45.0024 35.6692 44.8074 35.5417 44.6274C35.4142 44.4474 35.2567 44.3049 35.0617 44.1999C34.8667 44.0949 34.6567 44.0424 34.4317 44.0424C34.2067 44.0424 33.9968 44.0949 33.8018 44.1999Z" fill="#999999"/>
<path d="M38.9841 43.675V44.11H38.7366C38.5041 44.11 38.2941 44.17 38.0991 44.2825C37.9041 44.395 37.7541 44.5525 37.6341 44.7475C37.5216 44.9425 37.4616 45.16 37.4616 45.3925V47.1774H36.9891V43.6825H37.3941V44.575C37.5366 44.2975 37.7391 44.08 37.9866 43.915C38.2341 43.75 38.5191 43.6675 38.8341 43.6675H38.9841V43.675Z" fill="#999999"/>
<path d="M42.014 46.9749C41.7365 46.8174 41.519 46.5999 41.354 46.3224C41.1965 46.0449 41.114 45.7449 41.114 45.4224C41.114 45.0999 41.1965 44.7999 41.354 44.5299C41.5115 44.2599 41.7365 44.0424 42.014 43.8774C42.2915 43.7199 42.5915 43.6375 42.929 43.6375C43.259 43.6375 43.5589 43.7199 43.8364 43.8774C44.1139 44.0349 44.3314 44.2524 44.4964 44.5299C44.6539 44.8074 44.7364 45.0999 44.7364 45.4224C44.7364 45.7524 44.6539 46.0524 44.4964 46.3224C44.3389 46.5999 44.1139 46.8099 43.8364 46.9749C43.5589 47.1324 43.259 47.2149 42.929 47.2149C42.599 47.2149 42.2915 47.1324 42.014 46.9749ZM43.5965 46.5849C43.7989 46.4649 43.9639 46.2999 44.0764 46.0974C44.1964 45.8949 44.2564 45.6699 44.2564 45.4224C44.2564 45.1749 44.1964 44.9499 44.0764 44.7474C43.9564 44.5449 43.7989 44.3799 43.5965 44.2599C43.394 44.1399 43.169 44.0799 42.9215 44.0799C42.6815 44.0799 42.4565 44.1399 42.254 44.2599C42.0515 44.3799 41.8865 44.5449 41.774 44.7474C41.654 44.9499 41.594 45.1749 41.594 45.4224C41.594 45.6699 41.654 45.8949 41.774 46.0974C41.894 46.2999 42.0515 46.4649 42.254 46.5849C42.4565 46.7049 42.6815 46.7649 42.9215 46.7649C43.169 46.7649 43.394 46.7049 43.5965 46.5849Z" fill="#999999"/>
<path d="M46.6189 42.6776C46.4839 42.8126 46.4164 42.9851 46.4164 43.1801V43.6676H47.5039V44.1176H46.4164V47.1775H45.9439V44.1176H45.2839V43.6676H45.9439V43.1951C45.9439 42.9851 45.9964 42.7976 46.1014 42.6251C46.2064 42.4526 46.3414 42.3101 46.5214 42.2051C46.6939 42.1001 46.8889 42.0476 47.0914 42.0476H47.7139V42.4751H47.1139C46.9189 42.4751 46.7539 42.5426 46.6189 42.6776Z" fill="#999999"/>
<path d="M53.4213 42.0924V47.1773H53.0163V46.3449C52.8738 46.6074 52.6863 46.8173 52.4388 46.9748C52.1913 47.1323 51.9138 47.2073 51.5989 47.2073C51.2689 47.2073 50.9689 47.1248 50.6989 46.9673C50.4289 46.8098 50.2039 46.5923 50.0464 46.3149C49.8889 46.0374 49.8064 45.7449 49.8064 45.4224C49.8064 45.0999 49.8889 44.7999 50.0464 44.5299C50.2039 44.2599 50.4214 44.0424 50.6989 43.8774C50.9764 43.7124 51.2764 43.6374 51.5989 43.6374C51.8838 43.6374 52.1463 43.7049 52.3788 43.8324C52.6113 43.9599 52.7988 44.1399 52.9413 44.3724V42.085H53.4213V42.0924ZM52.2738 46.5849C52.4763 46.4649 52.6413 46.2999 52.7613 46.0974C52.8813 45.8949 52.9413 45.6699 52.9413 45.4224C52.9413 45.1749 52.8813 44.9499 52.7613 44.7474C52.6413 44.5449 52.4763 44.3799 52.2738 44.2599C52.0713 44.1399 51.8463 44.0799 51.6063 44.0799C51.3664 44.0799 51.1414 44.1399 50.9389 44.2599C50.7364 44.3799 50.5714 44.5449 50.4514 44.7474C50.3314 44.9499 50.2714 45.1749 50.2714 45.4224C50.2714 45.6699 50.3314 45.8949 50.4514 46.0974C50.5714 46.2999 50.7364 46.4649 50.9389 46.5849C51.1414 46.7049 51.3664 46.7648 51.6063 46.7648C51.8538 46.7648 52.0713 46.7049 52.2738 46.5849Z" fill="#999999"/>
<path d="M56.9762 43.8625C57.2162 44.005 57.4037 44.2 57.5462 44.4475C57.6887 44.695 57.7562 44.965 57.7562 45.2575V47.1775H57.2837V45.265C57.2837 45.055 57.2312 44.86 57.1262 44.68C57.0212 44.5 56.8862 44.3575 56.7062 44.2525C56.5262 44.1475 56.3387 44.095 56.1287 44.095C55.9187 44.095 55.7312 44.1475 55.5512 44.2525C55.3712 44.3575 55.2362 44.5 55.1312 44.68C55.0262 44.86 54.9737 45.055 54.9737 45.265V47.1775H54.5012V43.6825H54.9062V44.4175C55.0337 44.185 55.2137 43.9975 55.4387 43.855C55.6637 43.7125 55.9112 43.645 56.1887 43.645C56.4662 43.645 56.7362 43.7125 56.9762 43.8625Z" fill="#999999"/>
<path d="M62.0686 43.6751V47.17H61.6636V46.3376C61.5286 46.6 61.3411 46.81 61.0936 46.9675C60.8461 47.125 60.5686 47.2001 60.2536 47.2001C59.9236 47.2001 59.6237 47.1175 59.3537 46.9601C59.0837 46.8026 58.8587 46.5851 58.7012 46.3076C58.5437 46.0301 58.4612 45.7376 58.4612 45.4151C58.4612 45.0926 58.5437 44.7926 58.7012 44.5226C58.8587 44.2526 59.0762 44.0351 59.3537 43.8701C59.6312 43.7051 59.9311 43.6301 60.2536 43.6301C60.5686 43.6301 60.8461 43.7051 61.0936 43.8626C61.3411 44.0201 61.5286 44.2301 61.6636 44.4926V43.6601H62.0686V43.6751ZM60.9361 46.5851C61.1386 46.4651 61.3036 46.3001 61.4161 46.0976C61.5361 45.8951 61.5961 45.6701 61.5961 45.4226C61.5961 45.1751 61.5361 44.9501 61.4161 44.7476C61.2961 44.5451 61.1386 44.3801 60.9361 44.2601C60.7336 44.1401 60.5086 44.0801 60.2611 44.0801C60.0212 44.0801 59.7962 44.1401 59.5937 44.2601C59.3912 44.3801 59.2262 44.5451 59.1137 44.7476C58.9937 44.9501 58.9337 45.1751 58.9337 45.4226C58.9337 45.6701 58.9937 45.8951 59.1137 46.0976C59.2337 46.3001 59.3912 46.4651 59.5937 46.5851C59.7962 46.7051 60.0212 46.765 60.2611 46.765C60.5086 46.765 60.7336 46.7051 60.9361 46.5851Z" fill="#999999"/>
<path d="M66.2685 43.51V47.1699H65.4885V46.6599C65.361 46.8399 65.2035 46.9824 65.016 47.0874C64.8285 47.1924 64.6185 47.2449 64.386 47.2449C64.0935 47.2449 63.8235 47.1699 63.591 47.0199C63.351 46.8699 63.1635 46.6674 63.0285 46.4049C62.8936 46.1499 62.826 45.8649 62.826 45.565V43.51H63.7635V45.535C63.7635 45.7525 63.8385 45.94 63.9885 46.09C64.1385 46.2474 64.326 46.3224 64.551 46.3224C64.761 46.3224 64.9485 46.2474 65.0985 46.09C65.2485 45.9325 65.331 45.7525 65.331 45.535V43.51H66.2685Z" fill="#999999"/>
<path d="M69.666 43.6601C69.906 43.8101 70.0934 44.0125 70.2284 44.275C70.3634 44.53 70.4309 44.815 70.4309 45.115V47.1775H69.4935V45.145C69.4935 44.9275 69.4185 44.74 69.261 44.59C69.1035 44.44 68.9235 44.3575 68.706 44.3575C68.496 44.3575 68.3085 44.4325 68.1585 44.59C68.0085 44.7475 67.926 44.9275 67.926 45.145V47.1775H66.9885V43.5176H67.7685V44.0351C67.896 43.8476 68.0535 43.6975 68.241 43.5925C68.4285 43.4876 68.6385 43.4351 68.871 43.4351C69.1635 43.4351 69.4335 43.5101 69.666 43.6601Z" fill="#999999"/>
<path d="M71.0385 42.3025H72.0209V43.06H71.0385V42.3025ZM71.061 43.51H71.9984V47.1699H71.061V43.51Z" fill="#999999"/>
<path d="M73.6482 46.99C73.3483 46.8175 73.1083 46.585 72.9283 46.2925C72.7558 46 72.6658 45.6775 72.6658 45.3325C72.6658 44.9875 72.7558 44.665 72.9283 44.38C73.1008 44.0876 73.3408 43.855 73.6482 43.69C73.9557 43.5251 74.2782 43.4351 74.6382 43.4351C74.9982 43.4351 75.3207 43.5176 75.6207 43.69C75.9207 43.8625 76.1532 44.0951 76.3332 44.38C76.5057 44.6725 76.5957 44.9875 76.5957 45.3325C76.5957 45.6775 76.5057 46 76.3332 46.2925C76.1607 46.585 75.9207 46.8175 75.6207 46.99C75.3207 47.1625 74.9982 47.245 74.6382 47.245C74.2782 47.245 73.9482 47.1625 73.6482 46.99ZM75.1407 46.24C75.2982 46.15 75.4182 46.0225 75.5157 45.865C75.6057 45.7075 75.6507 45.535 75.6507 45.3475C75.6507 45.16 75.6057 44.9875 75.5157 44.83C75.4257 44.6725 75.2982 44.545 75.1407 44.455C74.9832 44.365 74.8107 44.32 74.6232 44.32C74.4357 44.32 74.2632 44.365 74.1057 44.455C73.9482 44.545 73.8282 44.6725 73.7307 44.83C73.6407 44.9875 73.5958 45.16 73.5958 45.3475C73.5958 45.535 73.6407 45.7075 73.7307 45.865C73.8207 46.0225 73.9482 46.15 74.1057 46.24C74.2632 46.33 74.4357 46.375 74.6232 46.375C74.8107 46.375 74.9832 46.33 75.1407 46.24Z" fill="#999999"/>
<path d="M79.9107 43.6601C80.1507 43.8101 80.3382 44.0125 80.4732 44.275C80.6082 44.53 80.6757 44.815 80.6757 45.115V47.1775H79.7382V45.145C79.7382 44.9275 79.6632 44.74 79.5057 44.59C79.3482 44.44 79.1682 44.3575 78.9507 44.3575C78.7407 44.3575 78.5532 44.4325 78.4032 44.59C78.2533 44.7475 78.1708 44.9275 78.1708 45.145V47.1775H77.2333V43.5176H78.0133V44.0351C78.1408 43.8476 78.2983 43.6975 78.4857 43.5925C78.6732 43.4876 78.8832 43.4351 79.1157 43.4351C79.4007 43.4351 79.6707 43.5101 79.9107 43.6601Z" fill="#999999"/>
<path d="M83.9157 42.6776C83.7807 42.8126 83.7132 42.9851 83.7132 43.1801V43.6676H84.8006V44.1176H83.7132V47.1775H83.2407V44.1176H82.5807V43.6676H83.2407V43.1951C83.2407 42.9851 83.2932 42.7976 83.3982 42.6251C83.5032 42.4526 83.6382 42.3101 83.8182 42.2051C83.9907 42.1001 84.1857 42.0476 84.3881 42.0476H85.0106V42.4751H84.4106C84.2082 42.4751 84.0507 42.5426 83.9157 42.6776Z" fill="#999999"/>
<path d="M89.0754 43.6751V47.17H88.6704V46.3376C88.5354 46.6 88.3479 46.81 88.1005 46.9675C87.853 47.125 87.5755 47.2001 87.2605 47.2001C86.9305 47.2001 86.6305 47.1175 86.3605 46.9601C86.0905 46.8026 85.8655 46.5851 85.708 46.3076C85.5505 46.0301 85.468 45.7376 85.468 45.4151C85.468 45.0926 85.5505 44.7926 85.708 44.5226C85.8655 44.2526 86.083 44.0351 86.3605 43.8701C86.638 43.7051 86.938 43.6301 87.2605 43.6301C87.5755 43.6301 87.853 43.7051 88.1005 43.8626C88.3479 44.0201 88.5354 44.2301 88.6704 44.4926V43.6601H89.0754V43.6751ZM87.943 46.5851C88.1455 46.4651 88.3105 46.3001 88.423 46.0976C88.5429 45.8951 88.6029 45.6701 88.6029 45.4226C88.6029 45.1751 88.5429 44.9501 88.423 44.7476C88.303 44.5451 88.1455 44.3801 87.943 44.2601C87.7405 44.1401 87.5155 44.0801 87.268 44.0801C87.028 44.0801 86.803 44.1401 86.6005 44.2601C86.398 44.3801 86.233 44.5451 86.1205 44.7476C86.0005 44.9501 85.9405 45.1751 85.9405 45.4226C85.9405 45.6701 86.0005 45.8951 86.1205 46.0976C86.2405 46.3001 86.398 46.4651 86.6005 46.5851C86.803 46.7051 87.028 46.765 87.268 46.765C87.508 46.765 87.733 46.7051 87.943 46.5851Z" fill="#999999"/>
<path d="M94.9927 43.8475C95.2177 43.9825 95.3902 44.1625 95.5252 44.395C95.6527 44.6275 95.7202 44.875 95.7202 45.1525V47.1775H95.2477V45.1675C95.2477 44.9725 95.2027 44.8 95.1052 44.635C95.0077 44.47 94.8877 44.3425 94.7227 44.2525C94.5652 44.155 94.3852 44.11 94.1902 44.11C94.0027 44.11 93.8302 44.155 93.6652 44.2525C93.5078 44.35 93.3728 44.4775 93.2828 44.635C93.1853 44.7925 93.1403 44.9725 93.1403 45.1675V47.1775H92.6753V45.1675C92.6753 44.9725 92.6303 44.8 92.5328 44.635C92.4353 44.4775 92.3078 44.3425 92.1503 44.2525C91.9928 44.155 91.8128 44.11 91.6253 44.11C91.4303 44.11 91.2578 44.155 91.0928 44.2525C90.9353 44.35 90.8078 44.4775 90.7103 44.635C90.6128 44.7925 90.5678 44.9725 90.5678 45.1675V47.1775H90.0953V43.6825H90.5003V44.3425C90.6278 44.1325 90.7928 43.96 90.9953 43.8325C91.1978 43.705 91.4303 43.645 91.6853 43.645C91.9703 43.645 92.2328 43.72 92.4728 43.8775C92.7128 44.035 92.8853 44.2375 93.0053 44.4925C93.1178 44.2375 93.2828 44.035 93.5078 43.8775C93.7328 43.72 93.9877 43.645 94.2652 43.645C94.5202 43.645 94.7677 43.7125 94.9927 43.8475Z" fill="#999999"/>
<path d="M96.5153 42.5574H97.0852V43.0524H96.5153V42.5574ZM96.5603 43.6748H97.0327V47.1698H96.5603V43.6748Z" fill="#999999"/>
<path d="M98.3452 46.9599C98.2028 46.8174 98.1353 46.6449 98.1353 46.4424V42.0925H98.6002V46.4724C98.6002 46.5474 98.6227 46.6149 98.6752 46.6599C98.7277 46.7049 98.7877 46.7349 98.8627 46.7349H98.9677V47.1774H98.8627C98.6602 47.1774 98.4877 47.1024 98.3452 46.9599Z" fill="#999999"/>
<path d="M102.665 43.6748L100.985 47.9722C100.895 48.2347 100.753 48.4372 100.558 48.5872C100.363 48.7372 100.123 48.8122 99.8227 48.8122H99.3577V48.3622H99.8151C100.16 48.3622 100.4 48.2047 100.535 47.8822L100.82 47.1772H100.573L99.2377 43.6823H99.7177L100.933 46.8697L102.185 43.6823H102.665V43.6748Z" fill="#999999"/>
<path d="M0.704972 39.8201H0.47998V51.9548H0.704972V39.8201Z" fill="#999999"/>
<path d="M107 39.8201H106.775V51.9548H107V39.8201Z" fill="#999999"/>
</svg>
