<svg width="143" height="51" viewBox="0 0 143 51" fill="none" xmlns="http://www.w3.org/2000/svg">
<path d="M19.96 0.550049H36.26L18.52 25.68L36.26 50.81H19.96C19.06 50.81 18.21 50.3701 17.69 49.6301L0.780029 25.67L17.69 1.71005C18.21 0.990052 19.06 0.550049 19.96 0.550049Z" fill="#FDB714"/>
<path d="M41.58 33.2599H44.98C47.92 33.2599 50.3 30.88 50.3 27.94V24.77C50.3 21.83 47.92 19.45 44.98 19.45H41.58C38.64 19.45 36.26 21.83 36.26 24.77V27.94C36.26 30.87 38.64 33.2599 41.58 33.2599ZM41.93 23.17H44.63C45.81 23.17 46.76 24.12 46.76 25.3V27.44C46.76 28.62 45.81 29.57 44.63 29.57H41.93C40.75 29.57 39.8 28.62 39.8 27.44V25.3C39.8 24.12 40.76 23.17 41.93 23.17Z" fill="#231F20"/>
<path d="M49.6 39.4699C49.36 39.5099 49.14 39.2999 49.14 39.0499V36.4199C49.14 36.2099 49.29 36.0299 49.5 36.0099C50.74 35.8599 51.62 35.4999 52.14 34.9199C52.71 34.2899 52.99 33.1399 52.99 31.4899V23.5999C52.99 23.3699 53.18 23.1799 53.41 23.1799H56.11C56.34 23.1799 56.53 23.3699 56.53 23.5999C56.53 23.5999 56.53 30.7899 56.53 30.7999C56.53 32.5499 56.66 34.4599 55.77 35.9699C55.45 36.5199 55.06 37.0299 54.61 37.4799C53.46 38.6399 51.19 39.1899 49.6 39.4699Z" fill="#231F20"/>
<path d="M126.06 15.19V12.43C126.06 12.2 126.25 12.01 126.48 12.01H129.24C129.47 12.01 129.66 12.2 129.66 12.43V15.19C129.66 15.42 129.47 15.61 129.24 15.61H126.48C126.24 15.61 126.06 15.42 126.06 15.19Z" fill="#231F20"/>
<path d="M123.15 16.53C122.92 16.53 122.74 16.72 122.74 16.95V19.71C122.74 19.94 122.92 20.13 123.15 20.13H132.31C132.54 20.13 132.72 19.94 132.72 19.71V16.95C132.72 16.72 132.54 16.53 132.31 16.53H123.15Z" fill="#231F20"/>
<path d="M120.96 31.7C121.89 32.66 122.83 33.26 124.28 33.26C125.73 33.26 126.92 32.64 127.85 31.68C128.78 32.64 129.72 33.24 131.16 33.24H132.69C134.67 33.24 136.28 31.63 136.28 29.65V23.6C136.28 23.36 136.09 23.17 135.85 23.17H133.16C132.92 23.17 132.73 23.36 132.73 23.6V29.15C132.73 29.39 132.54 29.58 132.3 29.58H130.72C130.11 29.58 129.62 29.09 129.62 28.48V23.6C129.62 23.37 129.43 23.18 129.2 23.18H126.48C126.25 23.18 126.06 23.37 126.06 23.6V28.47C126.06 29.08 125.57 29.57 124.96 29.57H123.82C123.21 29.57 122.72 29.08 122.72 28.47V23.6C122.72 23.37 122.53 23.18 122.3 23.18H119.59C119.36 23.18 119.17 23.37 119.17 23.6V28.48C119.17 29.08 118.68 29.58 118.07 29.58H65.13C63.9 29.58 62.9 28.58 62.9 27.35V12.44C62.9 12.21 62.71 12.02 62.48 12.02H59.77C59.54 12.02 59.35 12.21 59.35 12.44V28.13C59.35 30.97 61.65 33.27 63.72 33.27H117.25C118.73 33.26 120.03 32.66 120.96 31.7Z" fill="#231F20"/>
<path d="M138.92 32.84V12.43C138.92 12.2 139.11 12.01 139.34 12.01H142.1C142.33 12.01 142.52 12.2 142.52 12.43V32.84C142.52 33.07 142.33 33.26 142.1 33.26H139.34C139.1 33.26 138.92 33.07 138.92 32.84Z" fill="#231F20"/>
</svg>
