<svg width="143" height="83" viewBox="0 0 143 83" fill="none" xmlns="http://www.w3.org/2000/svg">
<path d="M0.300892 66.3591H0V82.5399H0.300892V66.3591Z" fill="#999999"/>
<path d="M141.94 66.3591H141.639V82.5399H141.94V66.3591Z" fill="#999999"/>
<path d="M19.3685 0H35.6826L17.9266 25.1701L35.6826 50.3403H19.3685C18.4657 50.3403 17.6167 49.8998 17.0957 49.1627L0.170654 25.1701L17.0957 1.1776C17.6167 0.440475 18.4612 0 19.3685 0Z" fill="#FDB714"/>
<path d="M41.01 32.7616H44.4148C47.3569 32.7616 49.742 30.3749 49.742 27.4309V24.2577C49.742 21.3137 47.3569 18.927 44.4148 18.927H41.01C38.0679 18.927 35.6827 21.3137 35.6827 24.2577V27.4309C35.6827 30.3749 38.0679 32.7616 41.01 32.7616ZM41.3604 22.6576H44.0599C45.2368 22.6576 46.189 23.6104 46.189 24.7881V26.932C46.189 28.1096 45.2368 29.0625 44.0599 29.0625H41.3604C40.1835 29.0625 39.2313 28.1096 39.2313 26.932V24.7881C39.2313 23.6104 40.1835 22.6576 41.3604 22.6576Z" fill="#231F20"/>
<path d="M49.0366 38.9822C48.7941 39.0227 48.5785 38.8069 48.5785 38.5642V35.9259C48.5785 35.7146 48.7312 35.5348 48.9423 35.5124C50.1821 35.364 51.0624 35 51.5835 34.4202C52.1495 33.7864 52.4369 32.6358 52.4369 30.9817V23.0801C52.4369 22.8464 52.6256 22.6621 52.8547 22.6621H55.5587C55.7923 22.6621 55.9764 22.8509 55.9764 23.0801C55.9764 23.0801 55.9764 30.2851 55.9764 30.2896C55.9764 32.0425 56.1067 33.9572 55.2128 35.4674C54.8894 36.0158 54.5031 36.5282 54.054 36.9821C52.8996 38.1507 50.6267 38.7081 49.0366 38.9822Z" fill="#231F20"/>
<path d="M125.563 14.765V11.803C125.563 11.6277 125.707 11.4839 125.882 11.4839H128.841C129.017 11.4839 129.16 11.6277 129.16 11.803V14.765C129.16 14.9403 129.017 15.0841 128.841 15.0841H125.882C125.702 15.0796 125.563 14.9403 125.563 14.765Z" fill="#231F20"/>
<path d="M122.652 16.01C122.428 16.01 122.244 16.1988 122.244 16.428V19.1922C122.244 19.426 122.428 19.6102 122.652 19.6102H131.825C132.049 19.6102 132.233 19.4215 132.233 19.1922V16.428C132.233 16.1943 132.049 16.01 131.825 16.01H122.652Z" fill="#231F20"/>
<path d="M120.46 31.1975C121.395 32.1639 122.334 32.7616 123.784 32.7616C125.231 32.7616 126.421 32.1414 127.355 31.1795V31.175C128.29 32.1414 129.224 32.7392 130.675 32.7392H132.202C134.187 32.7392 135.8 31.1256 135.8 29.1389V23.0756C135.8 22.8374 135.607 22.6486 135.373 22.6486H132.678C132.44 22.6486 132.251 22.8419 132.251 23.0756V28.631C132.251 28.8693 132.058 29.058 131.825 29.058H130.244V29.0625C129.637 29.0625 129.143 28.5681 129.143 27.9613V23.0756C129.143 22.8419 128.954 22.6576 128.725 22.6576H126.008C125.774 22.6576 125.59 22.8464 125.59 23.0756V27.9524C125.59 28.5591 125.096 29.0535 124.49 29.0535H123.353C122.747 29.0535 122.253 28.5591 122.253 27.9524V23.0756C122.253 22.8419 122.064 22.6576 121.835 22.6576H119.126C118.893 22.6576 118.709 22.8464 118.709 23.0756V27.9613C118.709 28.5681 118.215 29.0625 117.608 29.0625H64.6232C63.388 29.0625 62.3908 28.0602 62.3908 26.8287V11.9019C62.3908 11.6682 62.2021 11.4839 61.9731 11.4839H59.26C59.0265 11.4839 58.8423 11.6727 58.8423 11.9019V27.6108C58.8423 30.4514 61.1421 32.7572 63.2128 32.7572L116.795 32.7616C118.242 32.7616 119.553 32.1639 120.487 31.1975" fill="#231F20"/>
<path d="M138.432 32.4424V11.7984C138.432 11.6231 138.576 11.4792 138.751 11.4792H141.71C141.886 11.4792 142.029 11.6231 142.029 11.7984V32.4424C142.029 32.6177 141.886 32.7615 141.71 32.7615H138.751C138.576 32.7615 138.432 32.6177 138.432 32.4424Z" fill="#231F20"/>
<path d="M10.6005 75.9913C10.6005 76.3149 10.5377 76.5891 10.4074 76.8183C10.2771 77.0475 10.093 77.2228 9.85042 77.3442C9.60786 77.4655 9.31589 77.5284 8.97002 77.5284H8.52984C7.99981 77.5284 7.61352 77.3936 7.36647 77.1194C7.11942 76.8497 6.99814 76.4362 6.99814 75.8834V73.7709H5.62366V75.9194C5.62366 76.8767 5.87519 77.6228 6.37827 78.1577C6.88135 78.6926 7.60004 78.9577 8.52984 78.9577H8.97002C9.56294 78.9577 10.0885 78.8364 10.5466 78.5982C11.0048 78.36 11.3552 78.0094 11.6022 77.5464C11.8493 77.0835 11.9705 76.5306 11.9705 75.8879V72.7012H10.5961V75.9913H10.6005Z" fill="#999999"/>
<path d="M9.29313 71.3076H7.81116V72.5302H9.29313V71.3076Z" fill="#999999"/>
<path d="M19.4938 77.5059H18.0343V78.7284H19.4938H19.5971H21.0566V77.5059H19.5971H19.4938Z" fill="#999999"/>
<path d="M25.7913 70.3459H24.3093V71.5685H25.7913V70.3459Z" fill="#999999"/>
<path d="M24.835 74.4138C24.835 74.5846 24.7811 74.7195 24.6733 74.8183C24.5655 74.9127 24.4173 74.9622 24.2331 74.9622H23.1821H22.7733C22.5802 74.9622 22.4319 74.9127 22.3331 74.8138C22.2343 74.715 22.1849 74.5666 22.1849 74.3734V72.6969H20.8239V74.4273C20.8239 74.5936 20.77 74.724 20.6577 74.8183C20.5454 74.9127 20.4016 74.9622 20.222 74.9622H18.2591H17.4236V74.4363C17.4236 73.6767 17.2349 73.0834 16.8531 72.6564C16.4758 72.2249 15.9593 72.0137 15.308 72.0137C14.8768 72.0137 14.4995 72.1125 14.176 72.3148C13.8526 72.5171 13.5966 72.7957 13.4214 73.1508C13.2417 73.5104 13.1519 73.9149 13.1519 74.3734C13.1519 75.0745 13.3181 75.5869 13.6505 75.9105C13.9829 76.2342 14.5354 76.3915 15.308 76.3915H16.0581C16.0581 76.7421 15.9368 77.0207 15.6988 77.223C15.4607 77.4252 15.1328 77.5286 14.715 77.5286H13.0531L13.1609 78.9579H14.6297C15.4113 78.9579 16.0446 78.7287 16.5387 78.2747C17.0328 77.8208 17.3203 77.1915 17.3966 76.3915H18.2546H20.2175C20.5184 76.3915 20.7745 76.351 20.9856 76.2701C21.1967 76.1892 21.3674 76.0589 21.4931 75.8791C21.6009 76.0589 21.7582 76.1892 21.9648 76.2701C22.1714 76.351 22.4229 76.3915 22.7149 76.3915H23.1776H24.2286C24.835 76.3915 25.3156 76.2207 25.666 75.8836C26.0164 75.542 26.1915 75.0745 26.1915 74.4723V72.7014H24.8305V74.4138H24.835ZM16.0716 74.9802H15.3619C15.1463 74.9802 14.9756 74.9532 14.8543 74.9037C14.7285 74.8543 14.6432 74.7824 14.5893 74.688C14.5399 74.5936 14.5129 74.4678 14.5129 74.3104C14.5129 74.0183 14.5758 73.7846 14.7061 73.6138C14.8363 73.443 15.016 73.3576 15.2541 73.3576C15.5101 73.3576 15.7122 73.4475 15.856 73.6273C15.9997 73.807 16.0716 74.0677 16.0716 74.4093V74.9802Z" fill="#999999"/>
<path d="M34.0384 77.5059H32.5789V78.7284H34.0384H34.1462H35.6057V77.5059H34.1462H34.0384Z" fill="#999999"/>
<path d="M35.669 74.4138C35.669 74.5846 35.6151 74.7195 35.5073 74.8183C35.3995 74.9127 35.2603 74.9622 35.0896 74.9622H32.4709H31.6354V74.4363C31.6354 73.6767 31.4467 73.0834 31.0649 72.6564C30.6876 72.2249 30.1711 72.0137 29.5198 72.0137C29.0885 72.0137 28.7112 72.1125 28.3878 72.3148C28.0644 72.5171 27.8084 72.7957 27.6332 73.1508C27.4536 73.5104 27.3637 73.9149 27.3637 74.3734C27.3637 75.0745 27.5299 75.5869 27.8623 75.9105C28.1947 76.2342 28.7472 76.3915 29.5198 76.3915H30.2699C30.2699 76.7421 30.1486 77.0207 29.9106 77.223C29.6725 77.4252 29.3446 77.5286 28.9269 77.5286H27.2649L27.3727 78.9579H28.8415C29.6231 78.9579 30.2564 78.7287 30.7505 78.2747C31.2446 77.8208 31.5321 77.1915 31.6084 76.3915H32.4664H35.0716C35.6735 76.3915 36.1496 76.2207 36.5045 75.8836C36.8593 75.5465 37.0345 75.0745 37.0345 74.4723V72.7014H35.66V74.4138H35.669ZM30.2834 74.9802H29.5737C29.3581 74.9802 29.1874 74.9532 29.0661 74.9037C28.9403 74.8543 28.855 74.7824 28.8056 74.688C28.7562 74.5936 28.7292 74.4678 28.7292 74.3104C28.7292 74.0183 28.7921 73.7846 28.9224 73.6138C29.0526 73.443 29.2323 73.3576 29.4704 73.3576C29.7264 73.3576 29.9285 73.4475 30.0723 73.6273C30.216 73.807 30.2879 74.0677 30.2879 74.4093V74.9802H30.2834Z" fill="#999999"/>
<path d="M45.2142 75.2091H43.669V73.9056C43.669 73.5415 43.7858 73.2359 44.0239 72.9932C44.2619 72.7505 44.5629 72.6291 44.9357 72.6291H46.3641L46.3012 72.0493H44.9806C44.4012 72.0493 43.9385 72.2246 43.5971 72.5707C43.2558 72.9168 43.0806 73.3797 43.0806 73.9506V75.7979H45.1199C45.4433 75.7979 45.6813 75.8653 45.834 76.0091C45.9868 76.1485 46.0631 76.3597 46.0631 76.6384C46.0631 76.9755 45.9643 77.2811 45.7622 77.5553C45.56 77.8295 45.286 78.0497 44.9357 78.2115C44.5853 78.3733 44.1901 78.4542 43.7544 78.4542H42.9503C42.2496 78.4542 41.7106 78.252 41.3288 77.8474C40.9515 77.4429 40.7583 76.8631 40.7583 76.1035V74.1708H40.1699V76.1125C40.1699 77.0429 40.408 77.762 40.8841 78.2744C41.3602 78.7868 42.0385 79.043 42.9189 79.043H43.7544C44.2754 79.043 44.7605 78.9352 45.2007 78.7149C45.6454 78.4947 45.9957 78.198 46.2518 77.8205C46.5078 77.4429 46.6381 77.0294 46.6381 76.5844C46.6381 76.1529 46.5168 75.8203 46.2742 75.5731C46.0362 75.3304 45.6813 75.2091 45.2142 75.2091Z" fill="#999999"/>
<path d="M48.9692 69.4202H48.3809V76.3869H48.9692V69.4202Z" fill="#999999"/>
<path d="M51.1387 75.3801C50.9815 75.3801 50.8693 75.416 50.8019 75.4879C50.7345 75.5598 50.6986 75.69 50.6986 75.8741C50.6986 76.0582 50.7345 76.193 50.8019 76.2693C50.8693 76.3502 50.9815 76.3861 51.1387 76.3861C51.2959 76.3861 51.4082 76.3457 51.4755 76.2693C51.5429 76.193 51.5788 76.0582 51.5788 75.8741C51.5788 75.69 51.5429 75.5598 51.4755 75.4879C51.4082 75.416 51.2959 75.3801 51.1387 75.3801Z" fill="#999999"/>
<path d="M58.7209 76.1712C58.7209 76.6207 58.6265 77.0207 58.4379 77.3623C58.2492 77.7039 57.9797 77.9736 57.6383 78.1624C57.297 78.3511 56.9017 78.4455 56.457 78.4455H55.9854C55.2846 78.4455 54.7456 78.2433 54.3638 77.8388C53.9865 77.4342 53.7934 76.8544 53.7934 76.0948V74.1621H53.205V76.1038C53.205 77.0342 53.443 77.7534 53.9191 78.2658C54.3953 78.7781 55.0735 79.0343 55.9539 79.0343H56.457C57.0005 79.0343 57.4901 78.913 57.9258 78.6748C58.3615 78.4365 58.6984 78.0905 58.941 77.6455C59.1835 77.2005 59.3003 76.6791 59.3003 76.0948V73.0879H58.7209V76.1712Z" fill="#999999"/>
<path d="M56.5017 72.009H55.5811V72.6872H56.5017V72.009Z" fill="#999999"/>
<path d="M61.627 69.4202H61.0387V76.3869H61.627V69.4202Z" fill="#999999"/>
<path d="M63.7965 75.3801C63.6394 75.3801 63.5271 75.416 63.4597 75.4879C63.3924 75.5598 63.3564 75.69 63.3564 75.8741C63.3564 76.0582 63.3924 76.193 63.4597 76.2693C63.5271 76.3502 63.6394 76.3861 63.7965 76.3861C63.9537 76.3861 64.066 76.3457 64.1333 76.2693C64.2007 76.193 64.2366 76.0582 64.2366 75.8741C64.2366 75.69 64.2007 75.5598 64.1333 75.4879C64.066 75.416 63.9537 75.3801 63.7965 75.3801Z" fill="#999999"/>
<path d="M70.9116 75.2091H69.3664V73.9056C69.3664 73.5415 69.4832 73.2359 69.7212 72.9932C69.9593 72.7505 70.2602 72.6291 70.6331 72.6291H72.057L71.9941 72.0493H70.6735C70.0941 72.0493 69.6314 72.2246 69.29 72.5707C68.9486 72.9168 68.7735 73.3797 68.7735 73.9506V75.7979H70.8127C71.1361 75.7979 71.3742 75.8653 71.5269 76.0091C71.6797 76.1485 71.756 76.3597 71.756 76.6384C71.756 76.9755 71.6572 77.2811 71.4551 77.5553C71.2529 77.8295 70.9789 78.0497 70.6286 78.2115C70.2782 78.3733 69.8829 78.4542 69.4472 78.4542H68.6432C67.9425 78.4542 67.4035 78.252 67.0217 77.8474C66.6444 77.4429 66.4512 76.8631 66.4512 76.1035V74.1708H65.8628V76.1125C65.8628 77.0429 66.1009 77.762 66.577 78.2744C67.0531 78.7868 67.7314 79.043 68.6118 79.043H69.4472C69.9683 79.043 70.4534 78.9352 70.8936 78.7149C71.3383 78.4947 71.6886 78.198 71.9447 77.8205C72.2007 77.4429 72.3309 77.0294 72.3309 76.5844C72.3309 76.1529 72.2097 75.8203 71.9671 75.5731C71.7291 75.3304 71.3742 75.2091 70.9116 75.2091Z" fill="#999999"/>
<path d="M78.076 73.5643L75.9199 71.1147L75.5022 71.5327L77.6178 73.9149C77.7885 74.1082 77.9143 74.288 77.9951 74.4588C78.076 74.6251 78.1119 74.7824 78.1119 74.9262C78.1119 75.1824 78.0086 75.3937 77.802 75.551C77.5954 75.7083 77.3079 75.7892 76.9441 75.7892H73.692L73.7549 76.3915H76.9396C77.4965 76.3915 77.9278 76.2566 78.2332 75.987C78.5386 75.7173 78.6914 75.3577 78.6914 74.9082C78.6914 74.7015 78.642 74.4857 78.5476 74.2655C78.4488 74.0408 78.2916 73.807 78.076 73.5643Z" fill="#999999"/>
<path d="M85.2217 72.6337C84.8759 72.2291 84.3415 71.6673 83.6185 70.9526L83.2098 71.3931L83.6904 71.8875C83.2682 72.31 82.9359 72.6786 82.6979 72.9977C82.4599 73.3168 82.2892 73.609 82.1904 73.8787C82.0916 74.1483 82.0422 74.4225 82.0422 74.7012C82.0422 75.2316 82.2264 75.663 82.5946 75.9957C82.9628 76.3283 83.4344 76.4946 84.0137 76.4946C84.4224 76.4946 84.7861 76.4137 85.1095 76.2474C85.4328 76.0811 85.6798 75.8563 85.8594 75.5642C86.0391 75.2765 86.1289 74.9529 86.1289 74.5933C86.1289 74.2697 86.066 73.9641 85.9358 73.6764C85.8055 73.3887 85.572 73.0382 85.2217 72.6337ZM85.352 75.254C85.2217 75.4518 85.0376 75.6091 84.8041 75.7215C84.5706 75.8339 84.3146 75.8923 84.0362 75.8923C83.614 75.8923 83.2727 75.7799 83.0167 75.5507C82.7608 75.3215 82.6305 75.0203 82.6305 74.6473C82.6305 74.3057 82.7338 73.9596 82.9449 73.609C83.156 73.2629 83.5377 72.8179 84.0856 72.2741C84.4628 72.6381 84.7592 72.9528 84.9658 73.2135C85.1723 73.4741 85.3205 73.7124 85.4104 73.9281C85.5002 74.1438 85.5451 74.3641 85.5451 74.5933C85.5496 74.836 85.4822 75.0563 85.352 75.254Z" fill="#999999"/>
<path d="M91.8613 73.5643L89.7052 71.1147L89.2875 71.5327L91.4031 73.9149C91.5738 74.1082 91.6996 74.288 91.7804 74.4588C91.8613 74.6251 91.8972 74.7824 91.8972 74.9262C91.8972 75.1824 91.7939 75.3937 91.5873 75.551C91.3807 75.7083 91.0932 75.7892 90.7294 75.7892H87.4773L87.5402 76.3915H90.7249C91.2818 76.3915 91.713 76.2566 92.0185 75.987C92.3239 75.7173 92.4766 75.3577 92.4766 74.9082C92.4766 74.7015 92.4272 74.4857 92.3329 74.2655C92.2296 74.0408 92.0724 73.807 91.8613 73.5643Z" fill="#999999"/>
<path d="M94.7852 69.4202H94.1969V76.3869H94.7852V69.4202Z" fill="#999999"/>
<path d="M103.832 71.0427H102.911V71.7208H103.832V71.0427Z" fill="#999999"/>
<path d="M103.8 74.8407C103.8 75.1418 103.706 75.3756 103.517 75.5374C103.329 75.7037 103.077 75.7846 102.763 75.7846H101.617H100.49V74.6474C100.49 73.9553 100.315 73.4024 99.9689 72.9979C99.6231 72.5934 99.1469 72.3911 98.5495 72.3911C98.1767 72.3911 97.8443 72.481 97.5479 72.6653C97.2514 72.8496 97.0223 73.1058 96.8561 73.4429C96.6899 73.78 96.6091 74.162 96.6091 74.5935C96.6091 75.2138 96.7663 75.6722 97.0852 75.9554C97.4041 76.243 97.9207 76.3869 98.6349 76.3869H99.9015C99.8926 77.0161 99.6904 77.5195 99.2862 77.8881C98.8819 78.2611 98.3429 78.4454 97.6736 78.4454H96.4204L96.4968 79.0342H97.7095C98.5091 79.0342 99.1604 78.796 99.659 78.3241C100.158 77.8521 100.432 77.2049 100.481 76.3824H101.631H102.776C103.257 76.3824 103.648 76.243 103.944 75.9644C104.241 75.6857 104.393 75.3036 104.393 74.8137V73.0833H103.814V74.8407H103.8ZM99.8971 75.7846H98.6843C98.298 75.7846 97.997 75.7441 97.7814 75.6587C97.5658 75.5778 97.4131 75.4475 97.3188 75.2722C97.2244 75.0969 97.1795 74.8497 97.1795 74.5351C97.1795 74.0721 97.3008 73.6946 97.5434 73.4024C97.7859 73.1148 98.1003 72.9664 98.4866 72.9664C98.9538 72.9664 99.3041 73.1192 99.5377 73.4249C99.7758 73.7305 99.8926 74.1755 99.8926 74.7598V75.7846H99.8971Z" fill="#999999"/>
<path d="M111.243 70.0852H110.322V70.7588H111.243V70.0852Z" fill="#999999"/>
<path d="M112.591 72.3236C112.317 72.1932 111.975 72.1258 111.567 72.1258H109.002L108.916 72.7281H111.468C111.917 72.7281 112.263 72.818 112.501 73.0023C112.739 73.1865 112.928 73.5102 113.062 73.9821L111.037 75.1732C110.65 75.3934 110.282 75.5507 109.927 75.6451C109.572 75.7395 109.123 75.7845 108.58 75.7845H107.861H107.668C107.344 75.7845 107.102 75.6811 106.94 75.4788C106.774 75.2766 106.693 74.9709 106.693 74.5709V69.4155H106.105V74.5889C106.105 75.1597 106.235 75.6047 106.5 75.9148C106.765 76.2249 107.147 76.3823 107.65 76.3823H107.865H108.575C109.19 76.3823 109.694 76.3283 110.089 76.216C110.484 76.1036 110.893 75.9193 111.324 75.6541L113.759 74.1709C113.624 73.663 113.462 73.2585 113.282 72.9618C113.098 72.6697 112.869 72.4584 112.591 72.3236Z" fill="#999999"/>
<path d="M128.676 70.1707H127.755V70.8443H128.676V70.1707Z" fill="#999999"/>
<path d="M134.201 75.7844C133.823 75.7844 133.509 75.6495 133.266 75.3798C133.024 75.1102 132.903 74.7731 132.903 74.364C132.903 74.0989 132.965 73.8606 133.087 73.6449C133.208 73.4292 133.379 73.2628 133.594 73.1415C133.814 73.0201 134.052 72.9572 134.317 72.9572C134.74 72.9572 135.18 73.0696 135.638 73.2898L135.84 72.8269C135.575 72.6606 135.324 72.5437 135.077 72.4718C134.834 72.3999 134.578 72.3639 134.313 72.3639C133.927 72.3639 133.581 72.4538 133.28 72.6291C132.974 72.8044 132.741 73.0471 132.57 73.3572C132.404 73.6674 132.319 74.0225 132.319 74.4135C132.319 75.0068 132.521 75.4607 132.921 75.7754H131.29H131.065C130.76 75.7754 130.513 75.7484 130.338 75.699C130.158 75.6495 130.01 75.5596 129.898 75.4293C130.127 75.1147 130.239 74.7236 130.239 74.2607C130.239 73.8517 130.154 73.4831 129.983 73.1505C129.812 72.8179 129.574 72.5572 129.269 72.3729C128.963 72.1886 128.631 72.0942 128.267 72.0942C127.679 72.0942 127.095 72.3729 126.511 72.9302C125.927 73.4876 125.285 74.4135 124.575 75.699C124.382 75.6405 124.233 75.5372 124.126 75.3843C124.018 75.2315 123.964 75.0337 123.964 74.7865V73.0786H123.385V74.809C123.385 75.1012 123.281 75.3394 123.079 75.5102C122.877 75.6855 122.589 75.7754 122.226 75.7754H121.884H120.757V74.6382C120.757 73.946 120.582 73.3932 120.236 72.9887C119.89 72.5842 119.414 72.3819 118.816 72.3819C118.444 72.3819 118.111 72.4718 117.815 72.6561C117.518 72.8404 117.289 73.0966 117.123 73.4337C116.957 73.7708 116.876 74.1528 116.876 74.5843C116.876 75.2046 117.033 75.663 117.352 75.9462C117.671 76.2338 118.188 76.3777 118.902 76.3777H120.168C120.159 77.0069 119.957 77.5103 119.553 77.8789C119.149 78.2519 118.61 78.4362 117.94 78.4362H116.687L116.764 79.025H117.976C118.776 79.025 119.427 78.7868 119.921 78.3149C120.42 77.8429 120.694 77.1957 120.743 76.3732H121.893H122.235C122.571 76.3732 122.859 76.3147 123.097 76.1979C123.335 76.081 123.519 75.9012 123.65 75.6675C123.852 76.1394 124.337 76.3777 125.109 76.3777H128.083C128.689 76.3777 129.188 76.2114 129.574 75.8743C129.745 76.0675 129.942 76.2024 130.163 76.2698C130.383 76.3417 130.688 76.3777 131.074 76.3777H131.299H136.096L136.173 75.7754H134.201V75.7844ZM120.168 75.7844H118.956C118.569 75.7844 118.268 75.7439 118.053 75.6585C117.837 75.5776 117.684 75.4473 117.59 75.272C117.496 75.0967 117.451 74.8495 117.451 74.5348C117.451 74.0719 117.572 73.6943 117.815 73.4022C118.057 73.1145 118.372 72.9662 118.758 72.9662C119.225 72.9662 119.575 73.119 119.809 73.4247C120.047 73.7303 120.164 74.1753 120.164 74.7596V75.7844H120.168ZM129.246 75.3753C128.968 75.6495 128.577 75.7889 128.078 75.7889H125.159C125.765 74.7101 126.313 73.9191 126.798 73.4247C127.283 72.9302 127.764 72.683 128.236 72.683C128.501 72.683 128.743 72.7505 128.959 72.8808C129.179 73.0156 129.35 73.1999 129.475 73.4426C129.601 73.6854 129.664 73.964 129.664 74.2697C129.664 74.7326 129.525 75.0967 129.246 75.3753Z" fill="#999999"/>
</svg>
