<svg width="143" height="52" viewBox="0 0 143 52" fill="none" xmlns="http://www.w3.org/2000/svg">
<path d="M27.31 24.2999C26.98 24.2199 26.65 24.1499 26.32 24.0799C24.19 23.6199 22.8 23.2499 22.8 22.2799C22.8 21.0899 24.65 20.9599 25.44 20.9599C26.47 20.9599 28.22 21.2199 28.38 22.9299L28.39 23.0099C28.41 23.2599 28.62 23.4499 28.87 23.4499H31.57C31.85 23.4499 32.07 23.2199 32.05 22.9399L32.04 22.8399C31.84 19.3999 29.55 17.6499 25.23 17.6499C22.22 17.6499 18.98 19.1499 18.98 22.4399C18.98 25.9899 22.51 26.7699 24.4 27.1899C24.64 27.2399 24.88 27.2899 25.12 27.3399C27.46 27.8299 28.9 28.1899 28.9 29.3799C28.9 30.7299 27.22 31.0099 25.82 31.0099C24.43 31.0099 22.79 30.6799 22.41 29.2399C22.35 29.0199 22.17 28.8699 21.94 28.8699H19.2C18.91 28.8699 18.68 29.1299 18.72 29.4199C19.15 32.5399 21.64 34.3199 25.67 34.3199C29.08 34.3199 32.72 32.9399 32.72 29.0699C32.72 25.4799 29.2 24.7099 27.31 24.2999Z" fill="black"/>
<path d="M65.99 18.48V18.13C65.99 17.9 65.8 17.71 65.57 17.71H62.84C62.61 17.71 62.42 17.9 62.42 18.13V19.19C61.08 18.26 59.45 17.71 57.69 17.71C53.11 17.71 49.39 21.43 49.39 26.01C49.39 30.59 53.11 34.31 57.69 34.31C59.45 34.31 61.08 33.76 62.42 32.83V33.89C62.42 34.12 62.61 34.31 62.84 34.31H65.58C65.81 34.31 66 34.12 66 33.89V24.78L65.99 18.48ZM57.71 30.72C55.11 30.72 53.01 28.62 53.01 26.02C53.01 23.42 55.11 21.32 57.71 21.32C60.31 21.32 62.41 23.42 62.41 26.02C62.41 28.62 60.3 30.72 57.71 30.72Z" fill="black"/>
<path d="M16.52 27.2098H16.93C17.14 27.2098 17.32 27.0498 17.34 26.8398C17.37 26.5698 17.38 26.2898 17.38 26.0198C17.38 21.2598 13.37 17.4398 8.54998 17.7298C4.41998 17.9898 1.04998 21.3498 0.789977 25.4898C0.489977 30.3098 4.30998 34.3198 9.07998 34.3198C12.43 34.3198 15.31 32.3398 16.62 29.4898C16.75 29.2098 16.54 28.8998 16.24 28.8998H13.01C12.89 28.8998 12.77 28.9598 12.69 29.0498C11.82 30.0798 10.53 30.7398 9.07998 30.7398C6.88998 30.7398 5.04997 29.2398 4.51997 27.2098H13.64H16.52ZM9.07998 21.3098C11.08 21.3098 12.78 22.5498 13.47 24.3098H4.68998C5.37998 22.5498 7.07998 21.3098 9.07998 21.3098Z" fill="black"/>
<path d="M90.91 27.2098H91.32C91.53 27.2098 91.71 27.0498 91.73 26.8398C91.76 26.5698 91.77 26.2898 91.77 26.0198C91.77 21.2598 87.76 17.4398 82.94 17.7298C78.81 17.9898 75.44 21.3498 75.18 25.4898C74.88 30.3098 78.7 34.3198 83.47 34.3198C86.82 34.3198 89.7 32.3398 91.01 29.4898C91.14 29.2098 90.93 28.8998 90.63 28.8998H87.4C87.28 28.8998 87.16 28.9598 87.08 29.0498C86.21 30.0798 84.92 30.7398 83.47 30.7398C81.28 30.7398 79.44 29.2398 78.91 27.2098H88.03H90.91ZM83.46 21.3098C85.46 21.3098 87.16 22.5498 87.85 24.3098H79.07C79.76 22.5498 81.47 21.3098 83.46 21.3098Z" fill="black"/>
<path d="M72.9799 18.1897C73.5299 17.9697 74.1099 17.8097 74.6999 17.7497C74.9499 17.7197 75.1599 17.9197 75.1599 18.1697V20.9297C75.1599 21.1597 74.9699 21.3497 74.7399 21.3497C74.6899 21.3497 74.6399 21.3497 74.5799 21.3497C72.6999 21.3797 71.2299 22.9997 71.2299 24.8697V33.9097C71.2299 34.1397 71.0399 34.3297 70.8099 34.3297H68.0999C67.8699 34.3297 67.6799 34.1397 67.6799 33.9097V18.1397C67.6799 17.9097 67.8699 17.7197 68.0999 17.7197H70.8099C71.0399 17.7197 71.2299 17.9097 71.2299 18.1397V19.2197C71.2399 19.2197 71.9899 18.5897 72.9799 18.1897Z" fill="black"/>
<path d="M45.61 19.4698C46.77 20.5898 47.6 22.1099 47.86 23.6199C47.93 24.0299 47.97 24.4398 47.97 24.8498V33.9099C47.97 34.1399 47.78 34.3298 47.55 34.3298H44.84C44.61 34.3298 44.42 34.1399 44.42 33.9099V24.7598C44.42 22.8498 42.86 21.3098 40.94 21.3498C39.06 21.3798 37.59 22.9999 37.59 24.8699V33.9099C37.59 34.1399 37.4 34.3298 37.17 34.3298H34.46C34.23 34.3298 34.04 34.1399 34.04 33.9099V13.5098C34.04 13.2798 34.23 13.0898 34.46 13.0898H37.17C37.4 13.0898 37.59 13.2798 37.59 13.5098V19.2198C37.59 19.2198 38.34 18.5998 39.33 18.1998C39.88 17.9798 40.46 17.8198 41.05 17.7598C41.06 17.7598 43.45 17.3698 45.61 19.4698Z" fill="black"/>
<path d="M104.7 19.4698C105.86 20.5898 106.69 22.1099 106.95 23.6199C107.02 24.0299 107.06 24.4398 107.06 24.8498V33.9099C107.06 34.1399 106.87 34.3298 106.64 34.3298H103.93C103.7 34.3298 103.51 34.1399 103.51 33.9099V24.7598C103.51 22.8498 101.95 21.3098 100.03 21.3498C98.15 21.3798 96.68 22.9999 96.68 24.8699V33.9099C96.68 34.1399 96.49 34.3298 96.26 34.3298H93.55C93.32 34.3298 93.13 34.1399 93.13 33.9099V13.5098C93.13 13.2798 93.32 13.0898 93.55 13.0898H96.26C96.49 13.0898 96.68 13.2798 96.68 13.5098V19.2198C96.68 19.2198 97.43 18.5998 98.42 18.1998C98.97 17.9798 99.55 17.8198 100.14 17.7598C100.14 17.7598 102.53 17.3698 104.7 19.4698Z" fill="black"/>
<path d="M123.34 0.899902H107.05L124.78 26.0199L107.05 51.1399H123.34C124.24 51.1399 125.09 50.6999 125.61 49.9599L142.51 26.0199L125.61 2.0799C125.09 1.3399 124.24 0.899902 123.34 0.899902Z" fill="#FDB714"/>
</svg>
