<svg width="51" height="49" viewBox="0 0 51 49" fill="none" xmlns="http://www.w3.org/2000/svg">
<path d="M49.44 44.23L36.84 31.63C38.45 29.28 39.39 26.43 39.39 23.37V14.65C39.39 6.56 32.83 0 24.74 0H15.38C7.28997 0 0.72998 6.56 0.72998 14.65V23.37C0.72998 31.46 7.28997 38.02 15.38 38.02H24.74C27.96 38.02 30.93 36.97 33.34 35.21L45.9 47.77C46.39 48.26 47.03 48.5 47.67 48.5C48.31 48.5 48.95 48.26 49.44 47.77C50.42 46.79 50.42 45.21 49.44 44.23ZM15.38 33.01C10.06 33.01 5.72998 28.68 5.72998 23.36V14.64C5.72998 9.32 10.06 4.99 15.38 4.99H24.74C30.06 4.99 34.39 9.32 34.39 14.64V23.36C34.39 28.68 30.06 33.01 24.74 33.01H15.38Z" fill="#FDB714"/>
</svg>
