<svg width="51" height="50" viewBox="0 0 51 50" fill="none" xmlns="http://www.w3.org/2000/svg">
<path d="M49.44 45.1199L36.84 32.5199C38.45 30.1699 39.39 27.3199 39.39 24.2599V15.5399C39.39 7.44989 32.83 0.889893 24.74 0.889893H15.38C7.28997 0.889893 0.72998 7.44989 0.72998 15.5399V24.2599C0.72998 32.3499 7.28997 38.9099 15.38 38.9099H24.74C27.96 38.9099 30.93 37.8599 33.34 36.0999L45.9 48.6599C46.39 49.1499 47.03 49.3899 47.67 49.3899C48.31 49.3899 48.95 49.1499 49.44 48.6599C50.42 47.6799 50.42 46.0999 49.44 45.1199ZM15.38 33.8999C10.06 33.8999 5.72998 29.5699 5.72998 24.2499V15.5299C5.72998 10.2099 10.06 5.87989 15.38 5.87989H24.74C30.06 5.87989 34.39 10.2099 34.39 15.5299V24.2499C34.39 29.5699 30.06 33.8999 24.74 33.8999H15.38Z" fill="black"/>
</svg>
